<svg width="328" height="237" viewBox="0 0 328 237" fill="none" xmlns="http://www.w3.org/2000/svg">
<path d="M200.07 181.377H155.938V228.02H200.07V181.377Z" fill="#F9F9F9" stroke="#EDEDED" stroke-linecap="round" stroke-linejoin="round"/>
<path d="M236.91 181.377H200.07V228.02H236.91V181.377Z" fill="#F9F9F9" stroke="#DDDDDD" stroke-linecap="round" stroke-linejoin="round"/>
<path d="M293.758 175.053H248.578V229.389H293.758V175.053Z" fill="#F9F9F9" stroke="#EDEDED" stroke-linecap="round" stroke-linejoin="round"/>
<path d="M327.013 175.053H293.758V229.389H327.013V175.053Z" fill="#F9F9F9" stroke="#DDDDDD" stroke-linecap="round" stroke-linejoin="round"/>
<path d="M280.501 192.898H261.835V211.536H280.501V192.898Z" fill="#F9F9F9" stroke="#DDDDDD" stroke-linecap="round" stroke-linejoin="round"/>
<path d="M273.298 195.955C273.172 196.422 272.896 196.835 272.511 197.13C272.127 197.424 271.656 197.584 271.171 197.584C270.687 197.584 270.215 197.424 269.831 197.13C269.446 196.835 269.17 196.422 269.044 195.955C269.044 195.955 266.301 197.887 264.657 198.939L266.251 202.496L267.394 201.939V208.48H274.943V201.945L276.091 202.501L277.686 198.944C276.058 197.887 273.298 195.955 273.298 195.955Z" fill="#DDDDDD" stroke="#DDDDDD" stroke-linecap="round" stroke-linejoin="round"/>
<path d="M290.625 134.227H257.264V175.052H290.625V134.227Z" stroke="#DDDDDD" stroke-miterlimit="10"/>
<path d="M316.298 134.227H290.625V175.052H316.298V134.227Z" fill="#F9F9F9" stroke="#DDDDDD" stroke-linecap="round" stroke-linejoin="round"/>
<path d="M290.619 134.227L283.333 146.946H249.972L257.259 134.227H290.619Z" fill="#F9F9F9" stroke="#EDEDED" stroke-linecap="round" stroke-linejoin="round"/>
<path d="M323.584 146.946H297.911L290.619 134.227H316.292L323.584 146.946Z" fill="#F9F9F9" stroke="#DDDDDD" stroke-linecap="round" stroke-linejoin="round"/>
<path d="M136.03 222.511C138.633 227.494 138.628 234.858 138.628 234.858C138.628 234.858 107.742 234.63 107.742 234.858C107.742 235.087 111.595 227.739 122.616 225.69L121.25 221.615L136.03 222.511Z" fill="#683F1D"/>
<path d="M234.802 206.341L233.921 225.267C233.921 225.267 190.202 237.08 182.732 234.007C175.261 230.934 173.812 226.102 171.024 210.438C168.237 194.773 165.014 177.216 165.014 177.216C165.014 177.216 157.572 177.845 148.367 178.118C141.388 178.383 134.399 178.254 127.433 177.734C126.279 177.628 125.17 177.505 124.116 177.361L132.295 199.466C136.426 210.633 140.657 222.078 141.103 223.319H120.476C120.476 223.319 101.125 186.729 98.1757 179.265C95.2265 171.8 95.6837 159.564 106.538 158.729C117.393 157.894 149.616 157.616 149.616 157.616L178.049 157.36L189.695 157.254C189.979 168.727 192.666 190.916 194.155 202.294C194.712 206.63 195.092 209.397 195.092 209.397C195.092 209.397 210.439 210.438 234.802 206.341Z" fill="#C0D6D0"/>
<path d="M194.105 202.311C193.773 202.362 193.434 202.33 193.118 202.217C186.177 199.845 187.114 184.91 185.96 175.051C184.845 165.31 178.629 170.169 178.021 157.377L189.667 157.271C189.957 168.733 192.644 190.933 194.105 202.311Z" fill="#C0D5D1"/>
<path d="M164.998 177.217C164.998 177.217 157.555 177.846 148.351 178.118C151.696 172.891 155.687 177.295 159.016 175.38C162.344 173.465 159.991 167.542 163.576 167.787L164.998 177.217Z" fill="#C0D6D0"/>
<path d="M119.043 171.443C119.518 171.74 119.959 172.087 120.359 172.479C121.624 173.637 123.352 175.563 124.099 177.361" stroke="#83ADDF" stroke-width="0.75" stroke-linecap="round" stroke-linejoin="round"/>
<path d="M160.738 166.217C162.651 166.773 163.375 167.002 163.576 167.787C163.777 168.571 165.081 177.662 165.081 177.662" stroke="#83ADDF" stroke-width="0.75" stroke-linecap="round" stroke-linejoin="round"/>
<path d="M195.047 209.414C195.604 212.314 195.075 216.595 195.047 217.096" stroke="#83ADDF" stroke-width="0.75" stroke-linecap="round" stroke-linejoin="round"/>
<path d="M167.345 108.374C167.545 112.182 159.25 118.299 154.255 116.897C149.259 115.494 146.622 110.133 147.33 105.858C147.682 103.765 148.083 101.594 148.445 99.2447C148.836 96.8121 149.187 94.1902 149.41 91.2788C149.491 90.209 149.628 89.1443 149.822 88.0891C151.829 77.4123 159.082 76.0651 161.441 86.1742C163.844 96.4614 167.172 105.273 167.345 108.374Z" fill="#FEBD9D"/>
<path d="M157.277 91.0235C157.215 96.4232 153.664 99.2344 148.446 99.2455C148.836 96.8129 149.187 94.1909 149.41 91.2796C149.491 90.2098 149.629 89.1451 149.823 88.0899C153.296 87.2437 157.31 87.1046 157.277 91.0235Z" fill="#F4A789"/>
<path d="M189.673 157.272C189.243 157.918 179.158 158.513 169.212 158.68C159.601 158.847 150.124 158.608 149.588 157.634C149.343 157.177 149.103 155.786 148.853 153.809C148.027 147.129 147.124 133.898 145.569 127.852C144.749 124.668 142.681 120.376 140.83 116.329C138.115 110.417 135.863 105.023 138.645 104.366C143.105 103.309 145.758 102.585 148.217 100.665C148.217 105.675 148.719 110.072 154.862 108.263C161.006 106.454 163.593 99.4065 164.044 95.9718C164.044 95.9718 169.993 95.9718 173.494 95.6044C175.713 95.3249 177.947 95.1818 180.184 95.1758C181.857 95.2147 183.356 95.4541 184.176 96.0887C184.65 96.4561 185.291 100.436 185.96 106.214C186.517 110.762 187.041 116.424 187.56 122.308C188.045 127.819 188.496 133.53 188.864 138.696C189.048 141.29 189.216 143.745 189.344 145.972C189.383 146.567 189.416 147.146 189.45 147.703C189.767 153.208 189.879 156.96 189.673 157.272Z" fill="#2E7DA9"/>
<path d="M179.727 118.512C176.984 121.44 175.05 126.233 178.545 132.835C180.775 137.015 176.315 137.45 171.811 135.128C168.951 133.653 159.774 136.008 161.335 141.485C162.896 146.963 191.752 145.911 191.752 145.911L197.127 138.646C197.127 138.646 192.511 126.238 190.766 125.242C189.021 124.245 186.896 121.507 186.896 121.507L179.727 118.512Z" fill="#2E7DA9"/>
<path d="M185.965 106.215C181.293 108.291 177.151 111.832 175.891 116.09C175.672 116.814 175.543 117.562 175.507 118.317C175.01 128.894 160.666 139.314 151.395 127.78C151.183 127.519 150.977 127.224 150.77 126.962C146.929 121.607 143.807 118.011 140.83 116.341C138.115 110.429 135.863 105.035 138.645 104.378C143.105 103.32 145.758 102.597 148.217 100.676C148.217 105.686 148.719 110.084 154.862 108.275C161.006 106.466 163.593 99.4182 164.044 95.9835C164.044 95.9835 169.993 95.9835 173.494 95.6161C175.713 95.3366 177.947 95.1935 180.184 95.1875C181.857 95.2265 183.356 95.4658 184.176 96.1004C184.655 96.4567 185.291 100.437 185.965 106.215Z" fill="#54C1E4"/>
<path d="M170.132 119.106C170.617 116.98 172.741 116.028 174.001 117.893C175.2 119.663 172.452 123.755 170.963 123.944C169.474 124.133 166.408 122.04 166.012 119.858C165.617 117.676 168.226 117.036 170.132 119.106Z" fill="#F5AD5C"/>
<path d="M150.062 151.192C150.05 152.403 149.673 153.582 148.981 154.576C146.851 157.766 141.8 160.009 135.913 160.009C131.704 160.009 127.924 158.863 125.32 157.042C124.338 156.382 123.491 155.541 122.823 154.565C122.137 153.573 121.764 152.398 121.752 151.192C121.752 147.329 125.733 144.044 131.275 142.842C132.795 142.515 134.346 142.353 135.902 142.358H136.125C139.108 142.347 142.056 143.013 144.744 144.306C145.972 144.897 147.087 145.698 148.039 146.672C149.107 147.716 149.794 149.088 149.99 150.568C150.026 150.775 150.05 150.983 150.062 151.192V151.192Z" fill="#FED81D"/>
<path d="M150.062 151.192C150.05 152.402 149.673 153.582 148.981 154.576C146.851 157.766 141.8 160.009 135.913 160.009C131.704 160.009 127.924 158.862 125.32 157.042C124.338 156.382 123.491 155.541 122.823 154.565C125.863 153.585 129.107 153.416 132.233 154.075C132.746 154.192 133.242 154.331 133.727 154.487C134.762 154.831 135.813 155.123 136.877 155.361C147.615 157.677 141.003 147.779 144.772 144.322C145.999 144.913 147.114 145.714 148.066 146.688C149.135 147.733 149.822 149.105 150.018 150.585C150.044 150.786 150.059 150.989 150.062 151.192Z" fill="#2E7DA9"/>
<path d="M150.653 145.714C150.491 147.239 150.307 148.642 150.124 149.883C150.09 150.122 150.045 150.356 150.001 150.584C149.785 151.711 149.398 152.798 148.852 153.807C145.909 159.229 139.085 159.892 134.915 157.147C133.747 156.395 132.809 155.336 132.205 154.086C131.847 153.33 131.623 152.519 131.542 151.687C131.38 150.067 131.274 146.81 131.247 142.863C131.247 140.492 131.247 137.853 131.28 135.198C131.38 128.284 131.67 121.042 132.2 116.978C132.245 116.65 132.289 116.338 132.334 116.054C133.527 108.606 135.489 104.765 138.633 104.364C147.933 103.212 150.898 115.141 151.383 127.744C151.562 133.744 151.318 139.748 150.653 145.714V145.714Z" fill="#2E7DA9"/>
<path d="M151.395 127.767C151.183 127.506 150.976 127.211 150.77 126.949C146.929 121.594 143.807 117.998 140.83 116.328C137.992 114.736 135.288 114.903 132.222 116.963C132.267 116.634 132.311 116.322 132.356 116.039C133.549 108.59 135.511 104.749 138.656 104.349C147.944 103.213 150.932 115.142 151.395 127.767Z" fill="#54C1E4"/>
<path d="M145.714 127.445C146.377 131.342 147.069 137.56 147.693 143.36C148.122 147.329 148.518 151.098 148.853 153.803C148.886 154.071 148.919 154.327 148.953 154.572C149.041 155.612 149.254 156.638 149.588 157.628" stroke="#83ADDF" stroke-width="0.75" stroke-linecap="round" stroke-linejoin="round"/>
<path d="M150.124 149.885C150.09 150.124 150.046 150.358 150.001 150.586C150.023 150.788 150.035 150.99 150.034 151.193C150.022 152.404 149.645 153.583 148.953 154.577C148.919 154.332 148.886 154.076 148.853 153.809C145.909 159.231 139.085 159.894 134.915 157.149C133.747 156.397 132.809 155.338 132.206 154.087C132.718 154.204 133.215 154.344 133.7 154.499C134.734 154.843 135.786 155.135 136.85 155.373C147.587 157.689 140.975 147.792 144.744 144.335C145.332 143.823 146.049 143.483 146.818 143.349C147.104 143.295 147.399 143.304 147.682 143.377C148.618 143.617 149.627 144.491 150.642 145.726C150.492 147.24 150.308 148.643 150.124 149.885Z" fill="#2E7DA9"/>
<path d="M95.985 118.483C94.3125 114.976 107.096 107.394 108.724 110.105C110.352 112.816 102.519 120.053 102.519 120.053C102.519 120.053 96.3752 119.262 95.985 118.483Z" fill="#2E7DA9"/>
<path d="M100.127 100.908C102.023 100.785 104.498 102.11 108.568 110.928L101.783 117.268C101.783 117.268 96.8099 115.164 95.3046 111.93C93.7994 108.696 97.7911 101.058 100.127 100.908Z" fill="#FEBD9D"/>
<path d="M136.861 155.372C136.687 155.596 136.5 155.809 136.303 156.012C135.884 156.421 135.431 156.794 134.948 157.126C132.005 159.185 128.743 158.874 125.326 157.031C124.148 156.387 123.029 155.642 121.981 154.804C118.825 152.349 115.592 148.876 112.409 145.013C104.018 134.826 96.0181 118.46 96.0181 118.46C100.361 118.165 107.965 111.061 108.757 110.076C108.757 110.076 121.903 124.622 127.573 130.806C128.688 132.042 130.009 133.529 131.308 135.16C133.125 137.417 134.737 139.831 136.125 142.374C138.628 147.022 139.732 151.848 136.861 155.372Z" fill="#2E7DA9"/>
<path d="M136.861 155.372C136.687 155.595 136.501 155.809 136.303 156.012C135.884 156.421 135.431 156.793 134.948 157.125C132.005 159.185 128.743 158.873 125.326 157.03C124.148 156.386 123.029 155.641 121.981 154.804C122.265 154.704 122.538 154.62 122.823 154.537C125.863 153.557 129.107 153.388 132.233 154.047C132.746 154.164 133.242 154.303 133.727 154.459C134.756 154.815 135.802 155.12 136.861 155.372V155.372Z" fill="#2E7DA9"/>
<path d="M108.74 110.104C108.74 110.104 121.892 124.644 127.561 130.834C130.46 133.996 134.435 138.75 136.732 143.537" stroke="#83ADDF" stroke-width="0.75" stroke-linecap="round" stroke-linejoin="round"/>
<path d="M85.9497 104.354C84.7511 105.078 83.1287 105.534 82.181 104.621C81.2332 103.708 80.8709 100.485 83.2347 100.808C83.2347 100.808 86.5351 99.0713 87.4494 99.6614C88.3637 100.251 85.9497 104.354 85.9497 104.354Z" fill="#F9F9F9" stroke="#DDDDDD" stroke-linecap="round" stroke-linejoin="round"/>
<path d="M90.1477 113.233C90.1477 113.233 85.6877 113.233 85.0856 113.277C84.4835 113.322 84.0988 113.907 82.0528 113.996C80.0068 114.085 80.2521 110.656 80.5253 109.542C80.7985 108.429 82.1309 108.345 82.9393 108.679C83.7476 109.013 84.1881 108.596 84.2104 107.249C84.359 105.387 84.7836 103.558 85.4703 101.821C85.9667 100.478 86.8106 99.2906 87.9163 98.3792C89.0219 97.4678 90.3497 96.8654 91.7645 96.6332C94.9088 96.2324 98.6329 96.5608 98.8113 101.437C98.9897 106.314 98.8113 107.098 98.2036 108.958C97.5959 110.817 96.3416 111.964 95.7841 112.776C95.076 113.784 91.2181 114.441 90.1477 113.233Z" fill="#F9F9F9" stroke="#DDDDDD" stroke-linecap="round" stroke-linejoin="round"/>
<path d="M85.3924 90.7044C83.2572 90.9549 82.1645 89.4686 82.7554 88.0714C83.3464 86.6742 85.1972 86.7799 86.6579 88.6837L85.3924 90.7044Z" fill="#F9F9F9" stroke="#DDDDDD" stroke-linecap="round" stroke-linejoin="round"/>
<path d="M92.082 86.9024L95.2431 88.2273C95.2431 88.2273 97.4731 84.9374 94.8918 84.1581C92.1824 83.3287 92.082 86.9024 92.082 86.9024Z" fill="#F9F9F9" stroke="#DDDDDD" stroke-linecap="round" stroke-linejoin="round"/>
<path d="M85.5206 93.4656C84.8348 91.239 84.7178 87.7153 89.0718 86.1288C93.4259 84.5423 98.042 88.2831 98.9898 92.3467C99.9375 96.4104 94.7472 99.9285 89.5624 99.3886C84.3777 98.8486 83.8592 95.5531 85.5206 93.4656Z" fill="#F9F9F9" stroke="#DDDDDD" stroke-linecap="round" stroke-linejoin="round"/>
<path d="M90.0865 91.4553C90.0364 92.268 89.6573 93.0641 88.9381 93.2422C88.52 93.3653 88.0735 93.3529 87.6629 93.2069C87.2522 93.0609 86.8985 92.7887 86.6523 92.4295C87.6433 91.7046 88.8619 91.3589 90.0865 91.4553V91.4553Z" fill="#EDEDED" stroke="#EDEDED" stroke-linecap="round" stroke-linejoin="round"/>
<path d="M94.1226 95.5357C94.0856 94.8485 93.8814 94.1807 93.5278 93.59C93.1742 92.9994 92.6819 92.5036 92.0933 92.1456C91.4846 91.7681 90.7987 91.5322 90.0863 91.4553C88.8617 91.3589 87.6431 91.7046 86.6521 92.4295C86.2335 92.7205 85.8581 93.0691 85.5371 93.4649" stroke="#DDDDDD" stroke-linecap="round" stroke-linejoin="round"/>
<path d="M86.3789 90.9545C86.3789 91.0888 86.4188 91.2201 86.4935 91.3318C86.5683 91.4435 86.6745 91.5306 86.7988 91.582C86.9231 91.6334 87.0598 91.6468 87.1917 91.6206C87.3237 91.5944 87.4449 91.5297 87.54 91.4347C87.6351 91.3398 87.6999 91.2188 87.7261 91.087C87.7524 90.9553 87.7389 90.8187 87.6874 90.6946C87.636 90.5705 87.5488 90.4645 87.4369 90.3898C87.3251 90.3152 87.1936 90.2754 87.0591 90.2754C86.9697 90.2754 86.8813 90.293 86.7988 90.3271C86.7163 90.3612 86.6413 90.4112 86.5781 90.4743C86.515 90.5374 86.4649 90.6122 86.4307 90.6946C86.3965 90.777 86.3789 90.8653 86.3789 90.9545V90.9545Z" fill="#DDDDDD"/>
<path d="M90.1089 90.4545C90.1089 90.5891 90.1489 90.7206 90.2239 90.8324C90.2989 90.9442 90.4055 91.0313 90.5301 91.0825C90.6547 91.1337 90.7917 91.1469 90.9238 91.1202C91.0559 91.0935 91.1771 91.0283 91.272 90.9328C91.3668 90.8372 91.4312 90.7157 91.4568 90.5836C91.4824 90.4515 91.4681 90.3148 91.4158 90.1908C91.3635 90.0668 91.2754 89.9611 91.1628 89.8872C91.0503 89.8132 90.9182 89.7743 90.7835 89.7754C90.6041 89.7769 90.4325 89.8491 90.3061 89.9763C90.1798 90.1035 90.1089 90.2754 90.1089 90.4545V90.4545Z" fill="#DDDDDD"/>
<path d="M88.687 93.1934C89.0215 94.7966 89.3393 96.422 89.3393 96.422" stroke="#EDEDED" stroke-linecap="round" stroke-linejoin="round"/>
<path d="M87.3154 95.7361C87.5744 95.9963 87.8894 96.1942 88.2364 96.3148C88.5834 96.4354 88.9534 96.4754 89.3182 96.432C89.6831 96.3885 90.0332 96.2627 90.3421 96.064C90.6509 95.8653 90.9104 95.5989 91.1008 95.2852" stroke="#EDEDED" stroke-linecap="round" stroke-linejoin="round"/>
<path d="M93.197 108.391C92.2827 108.641 91.8144 108.207 91.2068 108.391C89.9635 108.775 89.1663 110.06 90.1252 113.233" fill="#F9F9F9"/>
<path d="M93.197 108.391C92.2827 108.641 91.8144 108.207 91.2068 108.391C89.9635 108.775 89.1663 110.06 90.1252 113.233" stroke="#DDDDDD" stroke-linecap="round" stroke-linejoin="round"/>
<path d="M95.6337 99.9904C94.4295 99.6787 93.0804 101.772 92.6678 102.417C92.6678 102.417 91.0678 102.852 91.419 104.293C91.7703 105.735 92.8351 105.93 93.8274 105.546" fill="#F9F9F9"/>
<path d="M95.6337 99.9904C94.4295 99.6787 93.0804 101.772 92.6678 102.417C92.6678 102.417 91.0678 102.852 91.419 104.293C91.7703 105.735 92.8351 105.93 93.8274 105.546" stroke="#DDDDDD" stroke-linecap="round" stroke-linejoin="round"/>
<path d="M92.6675 102.417C93.1525 102.261 93.671 103.046 93.671 103.046Z" fill="#F9F9F9"/>
<path d="M92.6675 102.417C93.1525 102.261 93.671 103.046 93.671 103.046" stroke="#DDDDDD" stroke-linecap="round" stroke-linejoin="round"/>
<path d="M90.4653 110.64C90.7274 109.905 91.5079 109.682 91.887 110.79C92.1072 111.546 92.1072 112.349 91.887 113.106" stroke="#EDEDED" stroke-linecap="round" stroke-linejoin="round"/>
<path d="M100.662 109.532C98.6384 108.419 98.1032 104.923 98.3429 103.364C98.3429 103.364 94.6746 105.357 93.8495 104.477C93.0244 103.598 94.3122 102.685 96.0014 101.215C97.6906 99.7456 99.3854 98.4319 101.766 100.369C103.314 101.703 104.581 103.333 105.49 105.162C105.551 105.24 104.827 109.766 100.662 109.532Z" fill="#FEBD9D"/>
<path d="M100.662 109.532C98.6384 108.419 98.1032 104.923 98.3429 103.364C98.3429 103.364 94.6746 105.357 93.8495 104.477C93.0244 103.598 94.3122 102.685 96.0014 101.215C97.6906 99.7456 99.3854 98.4319 101.766 100.369" stroke="#EF8A66" stroke-width="0.75" stroke-linecap="round" stroke-linejoin="round"/>
<path d="M82.605 101.816C83.3911 101.527 83.8482 103.486 83.536 104.343" stroke="#EDEDED" stroke-linecap="round" stroke-linejoin="round"/>
<path d="M81.0605 109.799C81.618 109.304 82.1756 109.632 82.2592 110.417C82.4487 111.809 82.6829 112.816 82.0306 113.106" stroke="#EDEDED" stroke-linecap="round" stroke-linejoin="round"/>
<path d="M163.141 78.8093C163.141 78.8093 164.529 80.2343 162.584 81.6482C162.277 81.8709 161.97 82.1047 161.675 82.3385C160.097 83.591 158.781 84.8491 158.781 84.8491L148.39 77.3452C147.899 76.3432 148.122 75.1575 148.691 74.8569C148.691 74.8569 147.615 74.4951 147.971 73.7046C148.328 72.9141 148.88 73.2426 148.947 73.2815C148.869 73.1758 147.905 71.7841 148.557 70.9825C148.761 70.7495 149.044 70.5989 149.352 70.5589C149.66 70.519 149.972 70.5924 150.229 70.7654C150.123 70.6374 149.471 69.8302 149.923 69.0954C150.374 68.3606 152.571 67.6648 152.911 69.7578C152.848 69.326 152.957 68.8868 153.214 68.5341C153.472 68.1814 153.857 67.9433 154.288 67.8707C154.611 67.7896 154.954 67.8341 155.246 67.9953C155.537 68.1565 155.757 68.4224 155.86 68.7391C155.86 68.7391 155.615 67.303 157.031 67.2473C158.447 67.1916 157.94 69.1065 157.889 69.3236C157.956 69.1511 158.592 67.5924 159.997 68.021C161.402 68.4497 160.905 70.2867 160.872 70.4147C160.967 70.3034 162.193 68.9396 163.476 70.5873C164.758 72.235 162.361 73.7046 162.361 73.7046C162.361 73.7046 163.665 73.3985 163.782 74.573C163.857 74.8587 163.815 75.1623 163.665 75.417C163.516 75.6717 163.271 75.8567 162.985 75.9313C162.985 75.9313 164.875 76.0037 164.78 77.3452C164.685 78.6868 163.141 78.8093 163.141 78.8093Z" fill="#BF8228"/>
<path d="M162.077 80.6688C161.904 81.2756 161.776 81.8378 161.675 82.3388C160.097 83.5913 158.782 84.8494 158.782 84.8494L148.39 77.3455C147.899 76.3435 148.122 75.1578 148.691 74.8572C148.691 74.8572 149.327 71.7733 150.754 71.4059C152.181 71.0385 153.235 71.2946 153.853 70.7435C154.472 70.1924 158.737 69.0735 159.808 71.7733C160.878 74.4731 160.549 74.5566 161.759 75.2413C162.969 75.926 162.773 78.1805 162.077 80.6688Z" fill="#B57724"/>
<path d="M161.441 86.1745C159.49 89.7817 153.023 95.3817 148.345 93.4111C144.705 91.897 145.301 87.5995 146.455 83.341C146.751 82.2555 147.08 81.1645 147.386 80.1291C147.42 80.0066 147.459 79.8897 147.492 79.7672C148.997 74.6125 150.28 71.6455 155.219 71.9739C160.159 72.3023 159.735 77.1676 159.735 77.1676C159.379 77.7963 159.129 78.4789 158.993 79.1883C158.792 80.0564 158.942 80.9687 159.412 81.7267C159.436 81.7651 159.462 81.8023 159.49 81.838C159.49 81.838 161.357 79.8674 163.297 80.9919C165.951 82.5561 164.49 86.5474 161.441 86.1745Z" fill="#FEBD9D"/>
<path d="M153.201 79.4766C153.201 79.6087 153.24 79.7379 153.314 79.8477C153.387 79.9576 153.492 80.0432 153.614 80.0937C153.736 80.1443 153.871 80.1575 154.001 80.1318C154.13 80.106 154.25 80.0424 154.343 79.9489C154.437 79.8555 154.5 79.7365 154.526 79.6069C154.552 79.4773 154.539 79.343 154.488 79.221C154.438 79.0989 154.352 78.9946 154.242 78.9212C154.132 78.8478 154.002 78.8086 153.87 78.8086C153.693 78.8086 153.523 78.879 153.397 79.0042C153.272 79.1295 153.201 79.2994 153.201 79.4766V79.4766Z" fill="#683F1D"/>
<path d="M150.101 79.961C150.471 79.961 150.77 79.6619 150.77 79.293C150.77 78.9241 150.471 78.625 150.101 78.625C149.732 78.625 149.432 78.9241 149.432 79.293C149.432 79.6619 149.732 79.961 150.101 79.961Z" fill="#683F1D"/>
<path d="M159.49 81.8594C159.143 82.3653 158.871 82.9184 158.681 83.5015" stroke="#EF8A66" stroke-width="0.75" stroke-linecap="round" stroke-linejoin="round"/>
<path d="M160.209 83.5017C162.305 82.0377 163.063 85.528 160.209 84.7208" stroke="#EF8A66" stroke-width="0.75" stroke-linecap="round" stroke-linejoin="round"/>
<path d="M160.053 83.7352C160.237 82.8278 161.759 81.5364 163.141 82.4938" stroke="#EF8A66" stroke-width="0.75" stroke-linecap="round" stroke-linejoin="round"/>
<path d="M149.444 82.9455C149.361 82.5037 149.425 82.0469 149.626 81.6449C149.827 81.2429 150.155 80.9176 150.559 80.7188C151.294 80.3737 152.331 79.6834 151.791 77.7852" stroke="#EF8A66" stroke-width="0.75" stroke-linecap="round" stroke-linejoin="round"/>
<path d="M147.833 77.1615C147.833 78.4029 151.021 77.3563 151.021 76.1762C151.005 74.534 147.833 76.5436 147.833 77.1615Z" fill="#BF8228"/>
<path d="M153.073 75.8587C152.711 77.0444 156.234 78.7033 156.658 77.8015C156.981 77.1112 153.658 73.9104 153.073 75.8587Z" fill="#BF8228"/>
<path d="M150.235 84.4922C152.61 84.4922 153.642 83.3789 153.642 83.3789C153.642 83.3789 153.87 85.767 152.153 85.9785C150.553 86.1789 150.235 84.4922 150.235 84.4922Z" fill="white" stroke="#EF8A66" stroke-width="0.75" stroke-linecap="round" stroke-linejoin="round"/>
<path d="M159.412 81.7493C159.061 82.1028 158.663 82.4063 158.23 82.6511C156.752 83.5084 155.197 83.5808 154.757 82.8237C154.316 82.0666 155.164 80.7585 156.641 79.9068C157.35 79.4721 158.162 79.2321 158.994 79.2109C158.792 80.079 158.943 80.9914 159.412 81.7493Z" fill="#F4AF90"/>
<path d="M148.117 83.4069C147.743 83.7298 147.124 83.6852 146.444 83.3624C146.74 82.2769 147.069 81.1858 147.375 80.1504C148.429 81.4085 148.758 82.8502 148.117 83.4069Z" fill="#F4AF90"/>
<path d="M209.759 153.663C209.581 154.181 209.391 154.665 209.202 155.116C209.189 155.154 209.174 155.191 209.157 155.227C209.029 155.511 208.901 155.784 208.761 156.046C205.539 162.169 200.081 161.74 195.242 156.736C192.802 154.087 190.848 151.028 189.472 147.701C189.1 146.822 188.728 145.907 188.357 144.957C187.638 142.947 186.684 140.682 185.569 138.277C185.38 137.859 185.19 137.431 185.012 137.002C182.782 132.076 180.089 126.565 177.859 121.193V121.148L177.686 120.731V120.692C177.051 119.144 176.454 117.613 175.919 116.11C172.267 105.845 171.459 97.0279 180.217 95.1965C184.839 94.2334 189.695 98.6701 193.815 104.253C196.455 107.921 198.79 111.799 200.795 115.849C202.199 118.632 204.095 122.262 205.868 126.297C209.564 134.775 212.747 145.063 209.759 153.663Z" fill="#2E7DA9"/>
<path d="M193.798 104.226C191.09 104.418 188.437 105.091 185.965 106.213C181.293 108.29 177.151 111.83 175.891 116.088C172.239 105.823 171.431 97.0059 180.189 95.1744C184.822 94.2058 189.695 98.6425 193.798 104.226Z" fill="#54C1E4"/>
<path d="M188.368 144.956C187.649 142.947 186.695 140.681 185.58 138.276C182.536 131.496 178.489 124.36 176.51 117.123" stroke="#83ADDF" stroke-width="0.75" stroke-linecap="round" stroke-linejoin="round"/>
<path d="M209.759 153.664C209.581 154.182 209.391 154.666 209.201 155.117C209.189 155.155 209.174 155.192 209.157 155.228C209.029 155.512 208.9 155.785 208.761 156.047C205.539 162.17 200.081 161.741 195.242 156.737C195.855 156.882 196.49 157.065 197.137 157.294C201.82 158.791 206.67 153.013 206.737 146.645C206.795 143.714 205.755 140.867 203.822 138.662C199.83 134.081 202.668 129.466 205.868 126.326C209.564 134.776 212.747 145.064 209.759 153.664Z" fill="#2E7DA9"/>
<path d="M135.734 148.415C132.166 148.365 123.347 148.415 123.347 148.415C123.347 148.415 122.901 144.919 123.347 144.028C123.793 143.138 124.986 142.871 127.617 142.915L128.448 142.214C129.106 141.657 130.048 140.872 130.884 140.204C131.439 139.732 132.027 139.303 132.646 138.918C133.398 138.579 142.012 138.646 143.45 138.679C144.888 138.712 147.18 141.201 147.62 143.767C148.061 146.333 146.07 148.693 135.734 148.415Z" fill="#F9F9F9" stroke="#DDDDDD" stroke-linecap="round" stroke-linejoin="round"/>
<path d="M128.319 147.58C128.318 147.979 128.436 148.369 128.657 148.701C128.878 149.033 129.193 149.292 129.561 149.446C129.93 149.599 130.336 149.64 130.728 149.563C131.12 149.485 131.48 149.294 131.763 149.012C132.045 148.731 132.238 148.372 132.316 147.981C132.395 147.59 132.355 147.184 132.203 146.816C132.05 146.447 131.791 146.132 131.459 145.91C131.127 145.689 130.737 145.57 130.337 145.57C129.803 145.57 129.291 145.782 128.912 146.159C128.534 146.535 128.321 147.046 128.319 147.58V147.58Z" fill="#DDDDDD" stroke="#F9F9F9" stroke-linecap="round" stroke-linejoin="round"/>
<path d="M141.092 149.584C142.203 149.584 143.104 148.684 143.104 147.574C143.104 146.464 142.203 145.564 141.092 145.564C139.98 145.564 139.079 146.464 139.079 147.574C139.079 148.684 139.98 149.584 141.092 149.584Z" fill="#DDDDDD" stroke="#F9F9F9" stroke-linecap="round" stroke-linejoin="round"/>
<path d="M133.711 140.193V142.37L128.448 142.203C129.106 141.646 130.048 140.861 130.884 140.193H133.711Z" fill="#F9F9F9" stroke="#EDEDED" stroke-linecap="round" stroke-linejoin="round"/>
<path d="M139.079 140.188H135.417V142.364H139.079V140.188Z" fill="#F9F9F9" stroke="#EDEDED" stroke-linecap="round" stroke-linejoin="round"/>
<path d="M154.121 136.825C151.077 135.712 149.599 152.345 152.944 153.247C157.482 154.466 155.994 137.493 154.121 136.825Z" fill="#2E7DA9"/>
<path d="M156.529 150.097C152.543 150.097 144.331 149.852 141.309 149.852C138.288 149.852 136.927 149.852 135.734 148.416C135.734 148.416 138.951 148.21 141.309 148.004C143.668 147.798 146.143 146.161 146.199 144.068C146.254 141.975 144.119 141.285 143.378 141.151C142.636 141.018 140.033 141.563 138.856 140.906C137.68 140.249 137.953 138.936 139.927 138.568C141.9 138.201 144.119 136.898 144.816 136.826C145.513 136.753 146.489 137.215 149.75 137.872C153.011 138.529 156.858 139.264 156.858 139.264L156.529 150.097Z" fill="#FEBD9D"/>
<path d="M141.309 149.85C138.282 149.85 136.927 149.85 135.734 148.414C135.734 148.414 138.951 148.208 141.309 148.002C143.668 147.796 146.143 146.16 146.199 144.066C146.254 141.973 144.119 141.283 143.378 141.15C142.636 141.016 140.033 141.561 138.856 140.905C137.68 140.248 137.953 138.934 139.927 138.567C141.9 138.199 144.119 136.897 144.816 136.824" stroke="#EF8A66" stroke-width="0.75" stroke-linecap="round" stroke-linejoin="round"/>
<path d="M209.185 155.117C209.172 155.155 209.158 155.192 209.14 155.228C209.012 155.512 208.884 155.785 208.745 156.046C204.24 164.919 195.76 162.376 180.15 160.577H180.1C164 158.713 152.944 153.246 152.944 153.246L153.022 153.174L153.073 153.118C153.115 153.063 153.155 153.006 153.19 152.946C153.217 152.907 153.241 152.866 153.262 152.823C153.262 152.823 153.34 152.656 153.379 152.561C153.381 152.545 153.381 152.528 153.379 152.511C153.418 152.411 153.457 152.305 153.491 152.189C153.524 152.072 153.58 151.91 153.619 151.754C153.658 151.598 153.658 151.593 153.68 151.509C153.781 151.097 153.87 150.619 153.953 150.095C154.11 149.066 154.232 147.835 154.31 146.494C154.31 146.193 154.344 145.893 154.355 145.581C154.355 145.386 154.355 145.191 154.355 144.996C154.388 143.722 154.388 142.374 154.355 141.005C154.355 140.27 154.293 139.53 154.238 138.778C154.238 138.517 154.204 138.255 154.182 137.994C154.154 137.604 154.115 137.214 154.076 136.83C158.012 136.83 176.644 137.737 185.553 138.261L186.11 138.3L186.857 138.383C187.76 138.495 188.78 138.678 189.879 138.94L190.509 139.085L191.155 139.24C191.59 139.346 192.031 139.463 192.482 139.586C193.385 139.836 194.311 140.142 195.242 140.437C199.484 141.879 203.878 144 206.693 146.65C209.308 149.038 210.568 151.91 209.185 155.117Z" fill="#2E7DA9"/>
<path d="M180.167 160.577H180.117C164 158.713 152.944 153.246 152.944 153.246" stroke="#83ADDF" stroke-width="0.75" stroke-linecap="round" stroke-linejoin="round"/>
<path d="M195.27 140.409C192.149 139.295 188.902 138.571 185.603 138.255C176.683 137.732 158.062 136.824 154.121 136.824" stroke="#83ADDF" stroke-width="0.75" stroke-linecap="round" stroke-linejoin="round"/>
<path d="M209.185 155.117C209.173 155.155 209.158 155.192 209.14 155.228C209.012 155.512 208.884 155.785 208.745 156.047C204.24 164.92 195.76 162.376 180.15 160.578C185.909 156.381 190.124 155.512 195.203 156.737C195.816 156.882 196.452 157.065 197.098 157.294C201.781 158.791 206.632 153.013 206.699 146.645C209.308 149.038 210.568 151.911 209.185 155.117Z" fill="#2E7DA9"/>
<path d="M245.01 221.533C245.01 225.987 246.164 232.722 243.622 232.722H219.577C218.652 232.722 218.903 229.677 221.456 228.987C224.009 228.297 230.554 223.309 231.173 221.533H245.01Z" fill="#683F1D"/>
<path d="M227.739 104.801L227.817 222.13H243.556V98.7891L227.739 104.801Z" fill="#C0D6D0"/>
<path d="M238.733 107.195C238.582 110.942 239.753 112.723 240.846 113.018" stroke="#C0D6D0" stroke-width="0.75" stroke-linecap="round" stroke-linejoin="round"/>
<path d="M258.563 225.257C258.563 229.894 259.756 236.846 257.119 236.846H232.227C231.262 236.846 231.524 233.696 234.167 232.95C236.81 232.204 243.594 227.071 244.202 225.234L258.563 225.257Z" fill="#683F1D"/>
<path d="M234.167 232.973C236.81 232.255 243.594 227.095 244.202 225.258" stroke="#91613D" stroke-width="0.75" stroke-linecap="round" stroke-linejoin="round"/>
<path d="M269.54 104.8C269.111 123.939 260.972 226.07 260.972 226.07C260.972 226.07 242.083 225.686 242.083 226.07V103.047L269.54 104.8Z" fill="#C0D6D0"/>
<path d="M242.083 226.071V117.098" stroke="#83ADDF" stroke-width="0.75" stroke-linecap="round" stroke-linejoin="round"/>
<path d="M257.18 37.8275C256.93 37.8443 256.678 37.8443 256.428 37.8275C252.559 37.4823 250.295 33.2684 249.738 30.0341C249.18 26.5939 247.346 26.0094 246.236 24.9629C245.127 23.9164 243.644 22.3354 244.503 19.7135C245.361 17.0916 246.822 11.987 242.323 11.8868C240.043 11.8311 238.721 9.94961 237.98 8.10704C237.533 6.95241 237.233 5.74606 237.088 4.51654C244.564 0.842544 248.126 2.94118 251.221 6.03068C254.315 9.12018 252.609 12.0649 254.259 16.0785C255.931 20.1923 262.549 20.671 262.9 26.6552C263.251 32.6393 261.501 37.6493 257.18 37.8275Z" fill="#604730"/>
<path d="M257.409 34.4431C257.175 35.5906 256.846 36.717 256.428 37.8109C252.559 37.4658 250.295 33.2518 249.738 30.0176C249.18 26.5774 247.346 25.9929 246.237 24.9464C245.127 23.8998 243.644 22.3189 244.503 19.697C245.361 17.0751 246.822 11.9705 242.323 11.8703C240.043 11.8146 238.721 9.93308 237.98 8.09051C245.49 4.68371 249.364 6.66545 249.994 9.59352C250.674 12.722 245.634 16.7856 249.994 20.6545C254.354 24.5233 259.672 23.9388 257.409 34.4431Z" fill="#473526"/>
<path d="M234.981 48.3037C228.848 48.6377 225.637 44.5963 225.843 41.9688C225.949 40.6773 226.195 37.4431 226.462 33.7079C226.702 30.4124 226.964 26.7161 227.17 23.5877C227.204 23.0755 227.237 22.5745 227.265 22.0958C227.934 11.469 238.298 8.335 239.446 20.6652C239.82 24.662 241.57 30.9245 242.702 36.2518C243.873 41.7016 241.119 47.9697 234.981 48.3037Z" fill="#FEBD9D"/>
<path d="M226.439 33.7086C226.679 30.4131 226.941 26.7168 227.147 23.5884L233.977 21.8516C235.605 27.6075 233.475 33.5082 226.439 33.7086Z" fill="#F4A789"/>
<path d="M271.396 46.5391C271.341 48.6099 271.173 50.7698 270.934 52.9519C270.326 58.5186 269.261 64.2912 268.531 69.1286C267.973 72.8527 267.6 76.0369 267.789 78.1912C268.096 81.726 268.431 86.5412 268.72 91.0502C269.183 98.2367 269.54 104.8 269.54 104.8H227.727C227.727 104.8 210.668 79.6663 208.115 68.366C206.793 62.5266 206.515 57.6335 207 53.5308C207.353 50.1284 208.472 46.8497 210.272 43.9395C213.405 39.0297 220.865 35.9012 226.44 34.2256C226.25 37.5211 225.503 42.3975 232.422 41.7128C239.34 41.0281 242.167 35.8567 241.531 31.0248C251.198 29.2045 264.065 28.325 268.018 32.5668C268.57 33.1672 269.04 33.8372 269.417 34.5596C270.084 35.8527 270.563 37.2342 270.839 38.6623C271.324 41.2582 271.511 43.9009 271.396 46.5391Z" fill="#2E7DA9"/>
<path d="M270.833 38.679C264.701 39.0074 258.317 41.6516 256.255 47.5856C256.101 48.0284 255.974 48.4801 255.875 48.9383C255.674 49.8968 255.367 50.8303 254.961 51.7217C251.059 60.4112 238.939 60.9067 229.467 54.8334C221.517 49.7399 216.928 47.0011 207.016 53.5197C207.366 50.1225 208.479 46.8479 210.272 43.9395C213.405 39.0297 220.864 35.9012 226.439 34.2256C226.25 37.5211 225.503 42.3975 232.421 41.7128C239.34 41.0281 242.166 35.8567 241.531 31.0248C251.198 29.2045 264.065 28.325 268.018 32.5668C268.569 33.1672 269.04 33.8372 269.417 34.5596C270.084 35.8582 270.56 37.2454 270.833 38.679V38.679Z" fill="#54C1E4"/>
<path d="M249.526 55.417C249.961 53.4019 251.957 52.4834 253.166 54.2313C254.32 55.9013 251.767 59.798 250.379 59.9817C248.991 60.1654 246.064 58.2282 245.662 56.1685C245.261 54.1088 247.703 53.5021 249.526 55.417Z" fill="#F5AD5C"/>
<path d="M219.504 48.3203L221.428 57.9562" stroke="#83ADDF" stroke-width="0.75" stroke-linecap="round" stroke-linejoin="round"/>
<path d="M267.789 78.1919C268.096 81.7267 268.43 86.5419 268.72 91.0509C265.972 88.8632 261.74 84.6715 263.63 80.7581C266.345 75.1358 264.745 71.9461 261.083 69.2796C257.42 66.6132 257.124 64.5034 260.034 55.825C262.945 47.1466 270.934 52.947 270.934 52.947C270.326 58.5137 269.261 64.2863 268.531 69.1238C267.968 72.8534 267.6 76.0376 267.789 78.1919Z" fill="#2E7DA9"/>
<path d="M233.364 62.4894L233.67 64.5435L236.135 64.0592L235.739 62.0273L233.364 62.4894Z" fill="#DDDDDD"/>
<path d="M233.671 57.2899L233.409 56.043" stroke="#EDEDED" stroke-linecap="round" stroke-linejoin="round"/>
<path d="M232.015 54.1288C231.865 55.4815 232.612 56.1273 233.403 56.0382C234.195 55.9491 234.83 54.9249 233.994 53.6445" stroke="#EDEDED" stroke-linecap="round" stroke-linejoin="round"/>
<path d="M230.069 57.8122C233.13 57.4726 237.088 56.6543 237.088 56.6543L237.936 61.7422C235.816 62.7967 233.459 63.2838 231.095 63.1562L230.069 57.8122Z" fill="#F9F9F9" stroke="#DDDDDD" stroke-linecap="round" stroke-linejoin="round"/>
<path d="M234.607 59.5784C234.606 59.7625 234.66 59.9427 234.762 60.0964C234.863 60.25 235.008 60.37 235.178 60.4412C235.348 60.5124 235.536 60.5316 235.717 60.4964C235.898 60.4611 236.064 60.373 236.195 60.2433C236.326 60.1135 236.415 59.9478 236.451 59.7673C236.488 59.5869 236.469 59.3997 236.399 59.2295C236.329 59.0593 236.21 58.9138 236.056 58.8114C235.903 58.709 235.723 58.6543 235.538 58.6543C235.292 58.6543 235.057 58.7515 234.882 58.9246C234.708 59.0977 234.609 59.3328 234.607 59.5784V59.5784Z" fill="#DDDDDD"/>
<path d="M231.664 60.2346C231.662 60.419 231.716 60.5995 231.818 60.7532C231.92 60.9069 232.065 61.0269 232.236 61.098C232.406 61.169 232.594 61.1879 232.775 61.1522C232.956 61.1165 233.122 61.0279 233.253 60.8975C233.383 60.7672 233.472 60.601 233.508 60.4202C233.544 60.2393 233.525 60.052 233.454 59.8819C233.383 59.7118 233.262 59.5666 233.108 59.4649C232.954 59.3632 232.774 59.3095 232.589 59.3106C232.344 59.3106 232.108 59.4079 231.935 59.5812C231.761 59.7545 231.664 59.9896 231.664 60.2346V60.2346Z" fill="#DDDDDD"/>
<path d="M231.095 64.187C231.095 64.187 233.682 64.2649 238.654 62.8398L239.686 67.1596L231.663 68.1115L231.095 64.187Z" fill="#F9F9F9" stroke="#EDEDED" stroke-linecap="round" stroke-linejoin="round"/>
<path d="M245.032 62.3984L240.706 63.0254L240.857 64.0666L245.183 63.4396L245.032 62.3984Z" fill="#F9F9F9" stroke="#EDEDED" stroke-linecap="round" stroke-linejoin="round"/>
<path d="M244.547 63.0059L244.202 67.9324L245.601 68.0381L245.729 63.1673L244.547 63.0059Z" fill="#F9F9F9" stroke="#EDEDED" stroke-linecap="round" stroke-linejoin="round"/>
<path d="M241.949 63.525C242.301 64.8721 239.446 65.4678 238.944 64.0427C238.443 62.6176 241.392 61.3707 241.949 63.525Z" fill="#DDDDDD"/>
<path d="M243.973 62.9297C243.973 63.1499 244.039 63.3652 244.161 63.5483C244.284 63.7314 244.458 63.8741 244.661 63.9583C244.865 64.0426 245.089 64.0646 245.306 64.0217C245.522 63.9787 245.721 63.8727 245.877 63.717C246.032 63.5613 246.139 63.3629 246.182 63.1469C246.225 62.931 246.203 62.7071 246.118 62.5037C246.034 62.3003 245.891 62.1264 245.708 62.004C245.524 61.8817 245.309 61.8164 245.088 61.8164C244.792 61.8164 244.509 61.9337 244.3 62.1425C244.091 62.3513 243.973 62.6345 243.973 62.9297Z" fill="#DDDDDD"/>
<path d="M231.284 69.2795C231.285 71.6757 230.575 74.0184 229.242 76.0112C227.91 78.004 226.015 79.5575 223.798 80.475C221.581 81.3925 219.142 81.6328 216.788 81.1656C214.434 80.6984 212.272 79.5446 210.575 77.8503C208.878 76.1559 207.723 73.997 207.255 71.6468C206.787 69.2966 207.028 66.8606 207.946 64.647C208.865 62.4334 210.421 60.5416 212.417 59.2111C214.413 57.8805 216.759 57.1709 219.159 57.172C220.89 57.1658 222.602 57.5342 224.176 58.2519C226.302 59.2089 228.105 60.7589 229.369 62.7153C230.633 64.6718 231.304 66.9512 231.301 69.2795H231.284Z" fill="#F9F9F9" stroke="#DDDDDD" stroke-linecap="round" stroke-linejoin="round"/>
<path d="M229.545 63.0226L225.559 61.7423L224.16 58.252C226.396 59.2635 228.273 60.9265 229.545 63.0226Z" fill="#DDDDDD" stroke="#DDDDDD" stroke-linecap="round" stroke-linejoin="round"/>
<path d="M212.798 58.9707L215.095 62.3775" stroke="#DDDDDD" stroke-linecap="round" stroke-linejoin="round"/>
<path d="M217.107 62.377L220.859 57.2891" stroke="#DDDDDD" stroke-linecap="round" stroke-linejoin="round"/>
<path d="M218.345 63.1562L223.725 64.0581L225.163 66.4517" stroke="#DDDDDD" stroke-linecap="round" stroke-linejoin="round"/>
<path d="M226.947 59.9961L223.725 64.0598" stroke="#DDDDDD" stroke-linecap="round" stroke-linejoin="round"/>
<path d="M208.566 63.3789L213.411 64.058" stroke="#DDDDDD" stroke-linecap="round" stroke-linejoin="round"/>
<path d="M212.251 63.898L214.164 60.9922H218.128L220.107 63.4026L217.603 67.3827H214.398L212.251 63.898Z" fill="#DDDDDD" stroke="#DDDDDD" stroke-linecap="round" stroke-linejoin="round"/>
<path d="M205.573 62.9288L207.546 63.157C208.061 61.974 208.405 60.7238 208.566 59.4441C208.566 59.4441 209.241 61.231 210.462 62.027C211.683 62.823 213.004 63.235 213.411 62.3721C213.818 61.5093 212.486 56.6552 210.986 54.4619C209.486 52.2686 206.264 50.9271 205.573 54.4619C205.11 57.2653 205.11 60.1254 205.573 62.9288V62.9288Z" fill="#F9F9F9" stroke="#DDDDDD" stroke-linecap="round" stroke-linejoin="round"/>
<path d="M192.064 54.8455C193.419 51.1826 200.098 58.9926 203.359 62.8392L202.144 64.5426C202.144 64.5426 189.823 60.8964 192.064 54.8455Z" fill="#F9F9F9" stroke="#DDDDDD" stroke-linecap="round" stroke-linejoin="round"/>
<path d="M201.982 69.2813C200.761 65.9413 200.867 61.744 205.266 61.1595C210.233 60.5082 214.398 69.2813 214.398 69.2813H201.982Z" fill="#F9F9F9" stroke="#DDDDDD" stroke-linecap="round" stroke-linejoin="round"/>
<path d="M208.567 59.4441C208.167 58.5145 207.857 57.5489 207.641 56.5605" stroke="#DDDDDD" stroke-linecap="round" stroke-linejoin="round"/>
<path d="M248.868 66.4531H231.095V106.578H248.868V66.4531Z" fill="#F9F9F9" stroke="#EDEDED" stroke-linecap="round" stroke-linejoin="round"/>
<path d="M231.095 66.4531H191.752V106.578H231.095V66.4531Z" fill="#F9F9F9" stroke="#DDDDDD" stroke-linecap="round" stroke-linejoin="round"/>
<path d="M210.796 87.3778C211.861 84.8561 214.699 84.1491 215.814 86.7209C216.901 89.1647 212.625 93.6013 210.746 93.5122C208.867 93.4232 205.561 90.1722 205.55 87.3889C205.539 84.6056 208.901 84.4107 210.796 87.3778Z" fill="#DDDDDD" stroke="#DDDDDD" stroke-linecap="round" stroke-linejoin="round"/>
<path d="M225.381 78.505H186.032L191.752 66.4531H231.095L225.381 78.505Z" fill="#F9F9F9" stroke="#DDDDDD" stroke-linecap="round" stroke-linejoin="round"/>
<path d="M254.599 78.5105H236.809L231.095 66.4531H248.885L254.599 78.5105Z" fill="#F9F9F9" stroke="#EDEDED" stroke-linecap="round" stroke-linejoin="round"/>
<path d="M190.637 95.3822C189.411 94.8812 188.34 96.4677 189.578 97.6089C190.816 98.7501 192.856 99.0896 193.224 98.1656C193.592 97.2415 191.987 95.9333 190.637 95.3822Z" fill="#FEBD9D" stroke="#EF8A66" stroke-width="0.75" stroke-linecap="round" stroke-linejoin="round"/>
<path d="M190.442 92.6821C189.037 92.1255 187.805 93.9235 189.232 95.215C190.66 96.5064 192.984 96.885 193.408 95.8663C193.832 94.8476 191.987 93.3112 190.442 92.6821Z" fill="#FEBD9D" stroke="#EF8A66" stroke-width="0.75" stroke-linecap="round" stroke-linejoin="round"/>
<path d="M190.542 89.8042C189.132 89.1752 188.362 91.3183 189.784 92.7378C191.206 94.1573 193.781 94.8253 194.205 93.6786C194.629 92.5319 192.087 90.5 190.542 89.8042Z" fill="#FEBD9D" stroke="#EF8A66" stroke-width="0.75" stroke-linecap="round" stroke-linejoin="round"/>
<path d="M191.752 86.1699V87.929C191.752 87.929 194.578 89.9831 194.629 91.2356C194.679 92.4881 193.268 92.6941 191.752 91.8424C190.236 90.9907 188.702 89.3318 189.226 87.8511C189.751 86.3703 191.752 86.1699 191.752 86.1699Z" fill="#FEBD9D" stroke="#EF8A66" stroke-width="0.75" stroke-linecap="round" stroke-linejoin="round"/>
<path d="M191.752 87.9285C191.452 87.7055 191.083 87.5933 190.709 87.6112" stroke="#EF8A66" stroke-width="0.75" stroke-linecap="round" stroke-linejoin="round"/>
<path d="M301.284 83.6355C301.284 89.6809 297.025 94.6575 291.55 95.3255C291.151 95.3749 290.748 95.3991 290.346 95.3979C284.303 95.3979 279.408 90.1429 279.408 83.6578C279.408 77.1726 284.303 71.9121 290.346 71.9121C292.613 71.9164 294.817 72.6634 296.618 74.0386C298.084 75.1707 299.268 76.6261 300.077 78.2909C300.887 79.9557 301.3 81.7849 301.284 83.6355V83.6355Z" fill="#FED81D"/>
<path d="M301.284 83.636C301.284 89.6814 297.025 94.658 291.55 95.326C290.826 87.0205 292.715 79.0379 296.618 74.0391C298.084 75.1712 299.268 76.6265 300.078 78.2914C300.887 79.9562 301.3 81.7854 301.284 83.636V83.636Z" fill="#2E7DA9"/>
<path d="M272.512 41.6412C272.513 43.337 272.132 45.0113 271.397 46.5399C270.418 48.5392 268.895 50.2225 267.001 51.3962C265.108 52.5699 262.921 53.1866 260.693 53.1753C259.754 53.1772 258.818 53.0688 257.905 52.8525C256.875 52.6146 255.881 52.2401 254.95 51.7391C253.117 50.7626 251.583 49.3088 250.51 47.5319C249.437 45.7551 248.866 43.7215 248.857 41.6468C248.901 38.5531 250.172 35.6031 252.39 33.4432C254.609 31.2832 257.594 30.0896 260.693 30.1238C263.336 30.116 265.907 30.9854 268.001 32.5954C269.236 33.5441 270.268 34.731 271.034 36.0857C271.495 36.8946 271.851 37.7588 272.094 38.6575C272.368 39.6285 272.508 40.6323 272.512 41.6412Z" fill="#2E7DA9"/>
<path d="M273.27 38.6743C272.88 38.6743 272.484 38.6465 272.082 38.6465C271.681 38.6465 271.235 38.6465 270.811 38.6799C264.679 39.0083 258.295 41.6525 256.233 47.5865C256.079 48.0293 255.952 48.481 255.853 48.9392C255.652 49.8977 255.345 50.8311 254.939 51.7226C253.106 50.746 251.571 49.2922 250.499 47.5154C249.426 45.7385 248.855 43.7049 248.846 41.6302C248.894 38.5375 250.168 35.5901 252.389 33.4334C254.609 31.2767 257.595 30.0867 260.693 30.1239C263.336 30.1162 265.907 30.9856 268.001 32.5955V32.5955C269.236 33.5442 270.268 34.7312 271.034 36.0858C271.631 36.6981 272.389 37.5832 273.27 38.6743Z" fill="#54C1E4"/>
<path d="M293.34 89.2977C289.761 89.5259 284.855 87.3494 278.783 80.7584C275.182 76.8618 271.67 72.9651 268.525 69.1297C263.932 63.563 260.113 58.0743 257.933 52.8527C257.2 51.1634 256.64 49.4047 256.26 47.6033C255.413 43.8657 255.925 39.9489 257.704 36.5535C259.321 33.5197 264.322 30.6696 269.412 34.5774C269.998 35.0288 270.545 35.5298 271.045 36.0748C271.603 36.6983 272.389 37.5834 273.275 38.6744C277.278 43.5341 283.996 52.5132 289.727 60.9411C295.113 68.9014 299.617 76.3941 300.141 79.5337C300.866 83.7922 298.446 88.9748 293.34 89.2977Z" fill="#2E7DA9"/>
<path d="M273.27 38.6735C272.88 38.6735 272.484 38.6457 272.082 38.6457C271.681 38.6457 271.235 38.6457 270.811 38.6791C264.679 39.0075 258.295 41.6517 256.233 47.5858C255.385 43.8481 255.897 39.9313 257.677 36.5359C259.293 33.5021 264.294 30.652 269.384 34.5598C269.97 35.0112 270.517 35.5122 271.017 36.0572C271.631 36.6974 272.389 37.5825 273.27 38.6735Z" fill="#54C1E4"/>
<path d="M278.789 80.7801C275.188 76.8834 271.675 72.9867 268.531 69.1513C263.937 63.5846 260.118 58.0959 257.939 52.8744C257.206 51.1851 256.646 49.4264 256.266 47.625" stroke="#83ADDF" stroke-width="0.75" stroke-linecap="round" stroke-linejoin="round"/>
<path d="M293.34 89.2966C294.379 88.3213 295.284 87.2132 296.032 86.0012C300.152 79.555 285.234 69.4348 289.733 60.9512C295.118 68.9115 299.623 76.4042 300.147 79.5438C300.866 83.7912 298.446 88.9738 293.34 89.2966Z" fill="#2E7DA9"/>
<path d="M241.704 17.3538L240.829 17.2369L239.19 17.0253L236.631 16.6913L221.824 14.7597C219.7 12.7 218.908 12.1489 218.585 11.364C218.437 10.9495 218.361 10.5127 218.362 10.0726C218.256 8.19105 218.412 2.92498 224.812 1.01561C225.397 0.841818 225.993 0.70608 226.596 0.609247C229.405 0.216356 232.267 0.477363 234.959 1.37188V1.37188C234.959 1.37188 235.722 0.0525781 239.469 2.36831C243.215 4.68404 247.474 11.2249 241.704 17.3538Z" fill="#604730"/>
<path d="M240.829 17.2367C240.74 18.0772 240.651 18.5838 240.651 18.5838L239.073 18.1663C239.123 17.7766 239.162 17.3981 239.19 17.053C240.199 5.30731 233.058 1.32715 226.596 0.642449C229.405 0.249559 232.267 0.51057 234.959 1.40508V1.40508C241.493 4.39438 241.192 13.7352 240.829 17.2367Z" fill="white"/>
<path d="M236.631 16.6921L221.824 14.7605C219.699 12.7008 218.908 12.1497 218.584 11.3648C219.995 5.61447 223.396 2.60847 228.725 2.45817C235.198 2.30787 236.937 7.663 237.456 11.671C237.586 13.3865 237.303 15.1082 236.631 16.6921V16.6921Z" fill="#473526"/>
<path d="M237.473 20.143C233.152 26.027 227.047 29.0497 223.736 27.1292C221.556 25.8489 220.491 22.5256 220.302 18.7013C220.239 17.4019 220.268 16.0997 220.391 14.8046C220.458 14.0475 220.558 13.296 220.681 12.5501C221.679 6.55479 225.698 2.45773 232.578 4.08876C232.578 4.08876 230.627 8.87053 233.732 11.9155C236.837 14.9605 239.307 14.5986 239.307 14.5986C239.307 14.5986 241.47 14.2424 242.34 15.712C244.352 19.1522 240.299 21.852 237.473 20.143Z" fill="#FEBD9D"/>
<path d="M226.596 13.0684C226.595 13.2021 226.634 13.3331 226.708 13.4447C226.781 13.5563 226.887 13.6435 227.01 13.6952C227.134 13.7469 227.27 13.7607 227.401 13.7348C227.532 13.709 227.653 13.6448 227.748 13.5502C227.842 13.4557 227.907 13.3352 227.933 13.204C227.958 13.0728 227.945 12.9369 227.893 12.8136C227.841 12.6903 227.754 12.5852 227.642 12.5116C227.53 12.438 227.399 12.3993 227.265 12.4004C227.088 12.4019 226.919 12.4727 226.794 12.5977C226.669 12.7226 226.598 12.8917 226.596 13.0684Z" fill="#683F1D"/>
<path d="M222.359 13.2344C222.358 13.3679 222.396 13.4986 222.47 13.6101C222.543 13.7216 222.648 13.8088 222.771 13.8607C222.895 13.9125 223.03 13.9266 223.162 13.9013C223.293 13.8759 223.414 13.8122 223.508 13.7182C223.603 13.6243 223.668 13.5042 223.695 13.3734C223.721 13.2426 223.708 13.1069 223.657 12.9835C223.606 12.8601 223.52 12.7546 223.409 12.6803C223.298 12.6061 223.167 12.5664 223.033 12.5664C222.856 12.5664 222.685 12.6366 222.558 12.7617C222.432 12.8868 222.36 13.0567 222.359 13.2344Z" fill="#683F1D"/>
<path d="M237.98 15.7057C238.212 15.3379 238.536 15.0371 238.921 14.833C239.305 14.6289 239.736 14.5287 240.171 14.5422" stroke="#EF8A66" stroke-width="0.75" stroke-linecap="round" stroke-linejoin="round"/>
<path d="M238.376 17.8776C238.794 16.3189 240.556 15.4672 241.721 16.7142" stroke="#EF8A66" stroke-width="0.75" stroke-linecap="round" stroke-linejoin="round"/>
<path d="M238.649 17.2039C240.433 15.957 241.599 19.2803 238.477 18.7514" stroke="#EF8A66" stroke-width="0.75" stroke-linecap="round" stroke-linejoin="round"/>
<path d="M225.163 19.9919C225.455 20.0527 225.757 20.0531 226.049 19.993C226.342 19.933 226.619 19.8137 226.863 19.6426C227.108 19.4715 227.315 19.2522 227.471 18.9983C227.627 18.7443 227.73 18.4611 227.772 18.166" stroke="#EF8A66" stroke-width="0.75" stroke-linecap="round" stroke-linejoin="round"/>
<path d="M223.413 17.6543C222.242 17.0531 222.231 16.0789 223.335 15.4666C224.439 14.8542 225.381 14.0359 225.163 11.8594" stroke="#EF8A66" stroke-width="0.75" stroke-linecap="round" stroke-linejoin="round"/>
<path d="M220.268 10.1567C220.508 10.8859 224.634 11.0418 224.433 9.2215C224.282 7.85766 219.967 9.2382 220.268 10.1567Z" fill="#604730"/>
<path d="M226.468 9.52729C226.089 10.752 230.588 12.3719 230.989 11.4534C231.341 10.6406 227.17 7.23383 226.468 9.52729Z" fill="#604730"/>
<path d="M228.056 16.9578C228.491 18.0711 230.32 18.4497 232.137 17.7538C233.955 17.058 235.081 15.5828 234.652 14.4528C234.222 13.3228 232.394 12.9609 230.571 13.6512C228.748 14.3415 227.627 15.8222 228.056 16.9578Z" fill="#F4AF90"/>
<path d="M221.757 17.7829C221.609 18.0438 221.398 18.2642 221.145 18.4244C220.891 18.5846 220.601 18.6798 220.302 18.7014C220.239 17.402 220.268 16.0998 220.391 14.8047C221.595 15.6508 222.192 16.8811 221.757 17.7829Z" fill="#F4AF90"/>
<path d="M256.16 97.8867C255.426 98.4461 254.572 98.829 253.665 99.0057C252.758 99.1823 251.822 99.148 250.931 98.9054C249.259 98.4712 246.181 100.887 243.472 102.145C240.762 103.403 238.454 104.032 239.742 106.014C239.742 106.014 236.157 106.882 234.947 107.511C233.738 108.141 234.947 109.348 236.252 109.348C237.557 109.348 244.486 108.792 246.666 108.686C248.846 108.58 260.046 105.535 260.046 105.535L256.16 97.8867Z" fill="#FEBD9D"/>
<path d="M243.472 102.146C240.757 103.405 238.454 104.034 239.742 106.015C239.742 106.015 236.157 106.884 234.947 107.513C233.738 108.142 234.947 109.35 236.252 109.35C236.726 109.35 237.925 109.277 239.374 109.183" stroke="#EF8A66" stroke-width="0.75" stroke-linecap="round" stroke-linejoin="round"/>
<path d="M292.035 95.4825C290.753 95.9947 289.276 96.5959 287.665 97.2639C276.966 101.678 260.693 108.687 260.693 108.687L254.728 97.7203C258.073 95.1875 264.35 90.0495 268.381 85.9413C272.411 81.8331 279.815 72.2306 290.017 76.1495C292.361 77.0097 294.447 78.4524 296.077 80.3412C300.309 85.4069 299.355 92.5433 292.035 95.4825Z" fill="#2E7DA9"/>
<path d="M292.035 95.4831C290.753 95.9953 289.276 96.5965 287.665 97.2645C289.471 89.5212 291.913 92.4437 296.027 86.0031C297.097 84.3331 296.886 82.4126 296.066 80.3418C300.309 85.4075 299.355 92.5439 292.035 95.4831Z" fill="#2E7DA9"/>
<path d="M254.728 97.7203C258.073 95.1819 264.356 90.0494 268.386 85.9412C272.417 81.833 279.815 72.225 290.023 76.1495" stroke="#83ADDF" stroke-width="0.75" stroke-linecap="round" stroke-linejoin="round"/>
<path d="M258.552 97.2578L262.622 105.535" stroke="#83ADDF" stroke-width="0.75" stroke-linecap="round" stroke-linejoin="round"/>
<path d="M239.742 106.015C242.53 105.391 246.85 105.18 248.177 104.623" stroke="#EF8A66" stroke-width="0.75" stroke-linecap="round" stroke-linejoin="round"/>
<path d="M51.1617 234.004H35.5517C35.5517 234.004 35.4903 230.82 35.3844 226.511C35.2004 219.18 34.4422 205.72 33.422 190.166C32.792 180.542 45.5476 180.146 45.4027 190.834C45.1072 211.943 44.8452 226.511 44.8452 226.511L51.9422 231.638C52.1701 231.799 52.3404 232.029 52.4278 232.294C52.5153 232.559 52.5153 232.844 52.428 233.109C52.3406 233.374 52.1704 233.604 51.9425 233.765C51.7145 233.926 51.4408 234.01 51.1617 234.004V234.004Z" fill="#B25E47"/>
<path d="M30.2832 192.075C36.1258 192.743 46.4117 192.682 46.3504 192.504C46.289 192.326 45.9824 146.473 45.7427 144.296C45.503 142.12 33.8122 143.556 33.2045 144.296C32.5968 145.037 30.2832 192.075 30.2832 192.075Z" fill="#C0D6D0"/>
<path d="M51.1615 234.002H35.5515C35.5515 234.002 35.4902 230.818 35.3843 226.51H44.8618L51.942 231.637C52.17 231.798 52.3403 232.027 52.4277 232.292C52.5152 232.557 52.5152 232.843 52.4278 233.108C52.3405 233.373 52.1703 233.602 51.9423 233.763C51.7144 233.925 51.4407 234.008 51.1615 234.002V234.002Z" fill="#54C1E4"/>
<path d="M12.9173 225.615C17.9348 215.879 22.4952 206.348 26.5928 198.7C27.7658 196.217 28.748 193.649 29.5308 191.018C29.7984 189.749 30.4563 184.394 25.3106 183.525C20.1648 182.657 18.537 185.752 16.9983 190.244C16.2847 192.321 9.90127 209.933 5.5918 219.619L12.9173 225.615Z" fill="#B25E47"/>
<path d="M13.0623 235.4L0.986816 225.514C0.986816 225.514 2.96037 223.015 5.61407 219.613L12.9173 225.614L15.1473 234.059C15.2173 234.325 15.2013 234.606 15.1016 234.862C15.0019 235.118 14.8236 235.336 14.5923 235.485C14.3609 235.634 14.0883 235.706 13.8135 235.691C13.5387 235.675 13.2757 235.574 13.0623 235.4V235.4Z" fill="#54C1E4"/>
<path d="M18.5758 146.322C18.5758 146.322 16.4628 170.387 12.0586 189.848C12.0586 189.848 19.5291 195.292 31.6993 193.188C31.939 192.52 35.1502 175.442 36.4158 168.795C37.6813 162.149 38.2499 159.855 39.8555 158.708C41.4611 157.562 41.2381 145.549 41.004 145.025C40.7698 144.502 25.6449 134.493 18.5758 146.322Z" fill="#C0D6D0"/>
<path d="M38.8911 155.987C39.9559 155.274 40.9706 154.445 41.0263 153.499C41.0821 152.552 41.1657 148.271 41.1657 148.271" stroke="#93A29E" stroke-width="0.75" stroke-linecap="round" stroke-linejoin="round"/>
<path d="M38.3171 148.271C38.1777 149.619 37.938 155.391 37.938 155.391" stroke="#93A29E" stroke-width="0.75" stroke-linecap="round" stroke-linejoin="round"/>
<path d="M31.6997 193.228C31.9394 192.56 35.1506 175.481 36.4162 168.835C37.6817 162.188 38.2503 159.895 39.8559 158.748" stroke="#93A29E" stroke-width="0.75" stroke-linecap="round" stroke-linejoin="round"/>
<path d="M64.2074 120.565C64.3467 118.389 64.7147 116.034 65.0882 115.294C65.4617 114.553 67.3572 111.854 68.1433 111.564C68.9294 111.275 69.1635 112.995 68.0039 114.793V115.277C68.9231 114.207 69.7616 113.07 70.5127 111.876C71.4381 110.3 72.2744 109.649 72.7817 110.106C73.289 110.562 71.5775 114.464 71.0702 115.066L71.4381 115.266C71.4381 115.266 74.7107 111.18 75.3016 110.813C76.0096 110.345 76.5337 111.481 75.9316 112.544C75.9316 112.544 76.857 111.943 77.225 112.494C77.5929 113.045 74.8668 117.676 74.8668 117.676C74.8668 117.676 77.749 114.498 78.4961 115.288C79.2431 116.079 73.6626 122.352 70.6576 125.052C70.6576 125.052 65.2778 133.363 62.3843 136.82C58.5989 141.34 52.3493 143.767 49.8629 140.889C46.7855 137.277 51.2566 131.47 64.2074 120.565Z" fill="#B25E47"/>
<path d="M65.0825 115.294C65.4505 114.553 67.3515 111.854 68.1376 111.564C68.9237 111.275 69.1578 112.995 67.9982 114.793V115.277C68.9174 114.207 69.7559 113.07 70.507 111.876C71.4324 110.3 72.2687 109.649 72.776 110.106C73.2833 110.562 71.5718 114.464 71.0645 115.066L71.4324 115.266C71.4324 115.266 74.705 111.18 75.2959 110.813C76.0039 110.345 76.528 111.481 75.9259 112.544C75.9259 112.544 76.8513 111.943 77.2193 112.494C77.5872 113.045 74.8611 117.676 74.8611 117.676C74.8611 117.676 77.7433 114.498 78.4904 115.288C78.8583 115.683 77.6541 117.454 75.9761 119.458" stroke="#934735" stroke-width="0.75" stroke-linecap="round" stroke-linejoin="round"/>
<path d="M67.9985 114.793C68.4111 117.137 68.2606 120.36 67.9985 120.61" stroke="#934735" stroke-width="0.75" stroke-linecap="round" stroke-linejoin="round"/>
<path d="M70.4067 114.459C71.1649 114.915 73.3336 118.211 73.3336 118.211" stroke="#934735" stroke-width="0.75" stroke-linecap="round" stroke-linejoin="round"/>
<path d="M74.8499 117.654L73.8799 118.901" stroke="#934735" stroke-width="0.75" stroke-linecap="round" stroke-linejoin="round"/>
<path d="M72.6981 117.27C72.6591 117.214 75.9149 112.521 75.9149 112.521" stroke="#934735" stroke-width="0.75" stroke-linecap="round" stroke-linejoin="round"/>
<path d="M53.6146 128.164C56.8815 138.373 55.7108 144.513 47.733 140.722C45.6033 138.802 45.7204 130.146 45.7204 130.146L53.6146 128.164Z" fill="#B25E47"/>
<path d="M34.7101 116.323C29.5922 116.88 28.0201 111.82 28.4382 109.409C28.8563 106.999 28.8117 103.676 28.9957 99.5954C29.3915 91.4068 37.7262 90.7611 38.9248 99.8904C39.0367 100.778 39.0832 101.673 39.0642 102.568C39.0505 104.087 39.125 105.606 39.2872 107.116C39.4098 108.341 39.5715 109.543 39.7499 110.668C40.1569 113.189 39.8335 115.75 34.7101 116.323Z" fill="#B25E47"/>
<path d="M39.2981 107.116C34.2806 107.868 33.4833 105.034 33.6896 100.737L38.9357 99.8906C39.0476 100.779 39.0941 101.673 39.0751 102.568C39.0614 104.087 39.1359 105.606 39.2981 107.116Z" fill="#914839"/>
<path d="M47.75 132.767C47.75 132.767 47.3597 139.67 47.6106 140.449C47.8615 141.228 48.7814 145.654 45.0907 146.327C41.4001 147.001 19.8861 147.246 18.576 146.327C17.8522 145.749 17.3173 144.968 17.0394 144.085C16.7614 143.201 16.7529 142.256 17.015 141.367C17.6506 139.636 17.1544 136.981 16.8032 135.389C16.753 135.166 16.6638 134.537 16.5411 133.608C16.0394 129.711 15.0861 120.487 15.0693 114.325C15.0693 111.374 15.27 109.125 15.8443 108.485C17.5168 106.615 18.9718 106.169 20.4548 106.086C20.7893 106.086 21.1294 106.086 21.4694 106.086C23.3148 106.119 27.3288 106.509 28.7169 106.548C29.3068 107.821 30.2194 108.919 31.3643 109.732C32.5093 110.545 33.847 111.046 35.2453 111.185C37.8321 111.502 39.2258 110.016 40.0732 107.845C40.0732 107.845 43.2565 107.288 45.559 107.912C47.4657 108.441 48.904 109.766 49.8741 111.775C50.0895 112.217 50.2757 112.673 50.4316 113.139C51.4239 115.922 53.7264 128.197 53.587 128.197C53.4476 128.197 47.75 132.767 47.75 132.767Z" fill="#F5C798"/>
<path d="M21.5917 119.986C24.435 119.473 28.3709 122.329 27.4901 125.463C26.6092 128.597 29.9709 129.917 32.6637 128.163C35.3564 126.41 38.3167 133.106 38.3167 133.106L29.642 135.845L24.5799 136.157L21.207 135.533L21.5917 119.986Z" fill="#F5C798"/>
<path d="M49.9018 111.742C49.0635 111.68 48.2251 111.86 47.4865 112.261C46.748 112.661 46.1407 113.266 45.7372 114.002C41.9295 120.081 37.3469 126.717 30.2833 119.435C29.0964 118.181 27.8141 117.019 26.4477 115.962C23.0024 113.362 19.518 112.416 15.0692 114.325C13.7261 114.922 12.4482 115.655 11.2559 116.513C11.7186 110.562 14.0099 106.448 19.5459 106.07C19.8481 106.042 20.1524 106.042 20.4546 106.07V106.07C20.7891 106.07 21.1292 106.07 21.4693 106.07C23.3146 106.103 27.3286 106.493 28.7168 106.532C29.3067 107.805 30.2192 108.903 31.3642 109.716C32.5091 110.529 33.8469 111.03 35.2451 111.169C37.8319 111.486 39.2256 110 40.073 107.829C40.073 107.829 43.2564 107.272 45.5588 107.896C47.4822 108.408 48.915 109.727 49.9018 111.742Z" fill="#F5AC5C"/>
<path d="M28.031 105.885C28.8059 105.234 29.3467 106.175 29.8373 106.865C30.3279 107.555 32.3293 110.244 35.1614 110.266C37.9935 110.289 39.1922 107.733 39.6214 107.177C40.0507 106.62 41.2939 107.288 40.9817 108.507C40.6695 109.726 38.9134 112.237 34.8492 112.237C30.1997 112.237 26.6261 107.065 28.031 105.885Z" fill="white"/>
<path d="M25.2768 130.441C29.118 140.356 25.9012 146.028 19.975 143.801C15.147 142.015 14.032 135.652 13.3296 131.638L25.2768 130.441Z" fill="#B25E47"/>
<path d="M26.8548 122.32C26.8686 125.245 26.7178 128.168 26.4032 131.076C24.7412 131.656 23.0451 132.134 21.3244 132.507C19.7411 132.891 18.0407 133.28 16.5633 133.62C14.3054 134.121 12.5716 134.483 12.5716 134.483C11.791 129.726 11.3328 124.922 11.2002 120.104C11.1635 118.91 11.1895 117.716 11.2782 116.525C11.7409 110.574 14.0323 106.46 19.5682 106.082C19.8705 106.054 20.1747 106.054 20.477 106.082V106.082C24.1676 106.477 25.8011 110.919 26.4589 115.957C26.7203 118.068 26.8525 120.193 26.8548 122.32Z" fill="#F5C798"/>
<path d="M26.8548 122.32C26.8687 125.245 26.7179 128.168 26.4033 131.076C26.4033 131.076 23.4708 121.056 23.2255 120.266C23.2255 120.177 23.1753 120.088 23.1475 120.01C24.6278 120.293 25.9494 121.117 26.8548 122.32Z" fill="#F5C798"/>
<path d="M26.4477 115.962C23.0024 113.362 19.518 112.416 15.0692 114.325C13.7261 114.922 12.4482 115.655 11.2559 116.513C11.7186 110.562 14.0099 106.448 19.5459 106.07C19.8481 106.042 20.1524 106.042 20.4546 106.07V106.07C24.1564 106.482 25.7899 110.924 26.4477 115.962Z" fill="#F5AC5C"/>
<path d="M27.6744 95.3983C26.158 91.5017 24.6583 85.3783 28.6277 82.3835C33.6452 78.6148 37.5477 82.8622 37.5477 82.8622C37.5477 82.8622 41.361 90.4273 35.379 94.3462C29.3971 98.2652 27.6744 95.3983 27.6744 95.3983Z" fill="#604730"/>
<path d="M38.9189 104.16C33.16 104.928 29.0066 99.6172 29.0066 99.6172C23.7828 99.0939 25.355 92.6978 29.5139 94.802C29.9543 95.0191 30.7516 93.0374 30.8073 91.5511C30.8631 90.0648 30.9746 89.7865 30.3111 89.291C29.6477 88.7956 28.7947 88.2723 29.4303 86.9809C30.0658 85.6894 31.5544 84.9936 32.3795 85.2441C33.2046 85.4946 35.691 85.5725 36.4882 84.6095C36.7274 84.2965 36.8935 83.9342 36.9745 83.549C37.0555 83.1638 37.0494 82.7654 36.9565 82.3828C36.9565 82.3828 40.1287 84.4759 42.4758 90.7328C42.5761 91.0056 42.6765 91.2895 42.7657 91.5455C43.2184 92.8141 43.5671 94.1173 43.8082 95.4422C44.5943 99.8454 43.6298 103.514 38.9189 104.16Z" fill="#B25E47"/>
<path d="M35.4346 92.0408C35.4346 92.1742 35.4743 92.3047 35.5487 92.4156C35.6231 92.5264 35.7287 92.6128 35.8523 92.6636C35.9759 92.7144 36.1118 92.7274 36.2428 92.701C36.3738 92.6745 36.494 92.6098 36.5881 92.5151C36.6823 92.4203 36.7461 92.2998 36.7715 92.1687C36.7969 92.0377 36.7827 91.9021 36.7308 91.7791C36.6789 91.6562 36.5915 91.5513 36.4799 91.478C36.3682 91.4047 36.2372 91.3661 36.1036 91.3672C36.0153 91.3672 35.9278 91.3847 35.8463 91.4186C35.7648 91.4525 35.6908 91.5022 35.6286 91.5648C35.5664 91.6274 35.5172 91.7017 35.4839 91.7834C35.4506 91.8651 35.4339 91.9526 35.4346 92.0408V92.0408Z" fill="#683F1D"/>
<path d="M39.2871 90.6993C39.286 90.8327 39.3246 90.9635 39.3981 91.075C39.4715 91.1865 39.5765 91.2737 39.6997 91.3255C39.8228 91.3774 39.9586 91.3915 40.0899 91.3661C40.2211 91.3408 40.3418 91.2771 40.4367 91.1831C40.5316 91.0891 40.5964 90.9691 40.6229 90.8383C40.6494 90.7075 40.6363 90.5718 40.5854 90.4484C40.5346 90.325 40.4481 90.2194 40.3371 90.1452C40.226 90.0709 40.0954 90.0313 39.9617 90.0313C39.8734 90.0305 39.7858 90.0473 39.704 90.0805C39.6222 90.1138 39.5478 90.1628 39.485 90.2249C39.4223 90.287 39.3725 90.3609 39.3386 90.4424C39.3046 90.5238 39.2871 90.6111 39.2871 90.6993V90.6993Z" fill="#683F1D"/>
<path d="M32.4297 90.2441C32.792 91.2294 35.6687 88.858 34.8938 87.8226C34.1189 86.7872 31.9948 89.0751 32.4297 90.2441Z" fill="#604730"/>
<path d="M37.2519 86.7872C36.9508 87.9562 39.9223 87.8393 39.9613 87.3439C40.0004 86.8484 37.5752 85.518 37.2519 86.7872Z" fill="#604730"/>
<path d="M28.4214 99.5064C29.1205 99.5534 29.8222 99.4684 30.4897 99.2559" stroke="#934735" stroke-width="0.75" stroke-linecap="round" stroke-linejoin="round"/>
<path d="M26.9214 96.7616C27.0608 95.9043 29.2406 95.4423 29.9598 97.1234" stroke="#934735" stroke-width="0.75" stroke-linecap="round" stroke-linejoin="round"/>
<path d="M29.6758 96.6504C27.8807 95.9935 27.4458 98.4762 29.8208 98.0587" stroke="#934735" stroke-width="0.75" stroke-linecap="round" stroke-linejoin="round"/>
<path d="M37.4749 90.0312C37.2296 91.1446 37.7704 91.9128 38.5063 92.0408C39.4708 92.2078 40.6081 92.6754 39.861 94.312" stroke="#934735" stroke-width="0.75" stroke-linecap="round" stroke-linejoin="round"/>
<path d="M35.9531 95.9941C37.4695 96.5063 39.9615 96.2001 39.9615 96.2001C39.9615 96.2001 39.6047 98.5214 37.9545 98.3767C36.3043 98.2319 35.9531 95.9941 35.9531 95.9941Z" fill="white" stroke="#934735" stroke-width="0.75" stroke-linecap="round" stroke-linejoin="round"/>
<path d="M35.702 95.3976C35.2448 96.3495 33.8622 96.6278 32.6134 96.0266C31.3646 95.4254 30.7291 94.1729 31.1863 93.2432C31.6434 92.3136 33.026 92.0186 34.2748 92.6198C35.5236 93.221 36.1591 94.4512 35.702 95.3976Z" fill="#A0503D"/>
<path d="M43.8084 95.4321C42.9777 96.0556 41.9519 96.1613 41.2996 95.6158C40.4913 94.9478 40.547 93.5394 41.4334 92.4762C41.7813 92.0462 42.2429 91.7222 42.7659 91.541C43.2183 92.8077 43.5669 94.109 43.8084 95.4321V95.4321Z" fill="#A0503D"/>
<path d="M19.6406 143.685C24.8365 145.962 29.1627 143.83 35.4457 141.353C41.7287 138.876 48.9205 135.291 48.9205 135.291C48.9205 135.291 54.7687 132.346 56.7812 131.088C58.7938 129.83 58.8719 129.106 58.6154 128.805C58.359 128.505 55.6272 129.574 55.1143 129.785C56.2212 128.707 57.2496 127.552 58.1917 126.328C59.0335 125.065 58.7046 124.196 57.3332 124.875C57.3332 124.875 58.5318 123.383 57.7178 122.827C56.9039 122.27 51.524 126.929 51.524 126.929C51.524 126.929 55.8391 122.999 55.0697 121.764C54.3004 120.528 48.0619 126.217 48.0619 126.217C48.0619 126.217 48.9595 122.287 47.995 121.992C47.0306 121.697 46.3225 123.333 45.5365 124.647C44.7504 125.961 43.4403 129.206 42.6319 129.546C41.8235 129.885 26.0407 131.366 21.2964 134.99C16.8921 138.38 16.4907 142.288 19.6406 143.685Z" fill="#B25E47"/>
<path d="M43.418 137.906C46.5846 136.448 48.9205 135.279 48.9205 135.279C48.9205 135.279 54.7687 132.334 56.7812 131.076C58.7938 129.818 58.8719 129.094 58.6154 128.794C58.359 128.493 55.6272 129.562 55.1143 129.773C56.2212 128.696 57.2497 127.54 58.1917 126.317C59.0335 125.053 58.7046 124.184 57.3332 124.864C57.3332 124.864 58.5318 123.372 57.7178 122.815C56.9039 122.258 51.524 126.918 51.524 126.918C51.524 126.918 55.8391 122.988 55.0697 121.752C54.3004 120.516 48.0619 126.205 48.0619 126.205C48.0619 126.205 48.9595 122.275 47.995 121.98C47.0306 121.685 46.3225 123.322 45.5365 124.635" stroke="#934735" stroke-width="0.75" stroke-linecap="round" stroke-linejoin="round"/>
<path d="M23.8105 135.005C24.7806 133.252 26.9549 132.528 27.7465 132.322" stroke="#934735" stroke-width="0.75" stroke-linecap="round" stroke-linejoin="round"/>
<path d="M53.3638 128.654C54.2112 127.914 57.3332 124.869 57.3332 124.869" stroke="#934735" stroke-width="0.75" stroke-linecap="round" stroke-linejoin="round"/>
<path d="M54.1055 130.592L55.1145 129.773" stroke="#934735" stroke-width="0.75" stroke-linecap="round" stroke-linejoin="round"/>
</svg>
