<svg width="275" height="238" viewBox="0 0 275 238" fill="none" xmlns="http://www.w3.org/2000/svg">
<path d="M261.867 40.5627V189.76H19.3799V40.5627C19.3781 38.586 19.8205 36.6283 20.6818 34.8018C21.5432 32.9752 22.8066 31.3156 24.3997 29.9179C25.9929 28.5201 27.8845 27.4117 29.9664 26.6559C32.0483 25.9002 34.2795 25.5121 36.5326 25.5137H244.714C249.263 25.5137 253.626 27.0992 256.843 29.9214C260.06 32.7437 261.867 36.5714 261.867 40.5627Z" stroke="#EDEDED" stroke-width="1.64" stroke-linecap="round" stroke-linejoin="round"/>
<path d="M261.867 40.5627V41.2334H19.3799V40.5627C19.3781 38.586 19.8205 36.6283 20.6818 34.8018C21.5432 32.9752 22.8066 31.3156 24.3997 29.9179C25.9929 28.5201 27.8845 27.4117 29.9664 26.6559C32.0483 25.9002 34.2795 25.5121 36.5326 25.5137H244.714C249.263 25.5137 253.626 27.0992 256.843 29.9214C260.06 32.7437 261.867 36.5714 261.867 40.5627Z" stroke="#DDDDDD" stroke-width="1.64" stroke-linecap="round" stroke-linejoin="round"/>
<path d="M229.048 33.3787C229.048 33.9214 228.865 34.4519 228.521 34.9032C228.178 35.3544 227.689 35.7061 227.118 35.9138C226.546 36.1215 225.918 36.1758 225.311 36.0699C224.704 35.9641 224.147 35.7027 223.709 35.319C223.272 34.9352 222.974 34.4463 222.854 33.914C222.733 33.3818 222.795 32.83 223.032 32.3286C223.268 31.8273 223.669 31.3987 224.183 31.0972C224.698 30.7957 225.302 30.6348 225.921 30.6348C226.75 30.6348 227.546 30.9239 228.132 31.4385C228.719 31.953 229.048 32.651 229.048 33.3787Z" fill="#EDEDED"/>
<path d="M239.224 33.3787C239.224 33.9214 239.04 34.4519 238.697 34.9032C238.353 35.3544 237.865 35.7061 237.293 35.9138C236.722 36.1215 236.093 36.1758 235.486 36.0699C234.879 35.9641 234.322 35.7027 233.885 35.319C233.447 34.9352 233.15 34.4463 233.029 33.914C232.908 33.3818 232.97 32.83 233.207 32.3286C233.444 31.8273 233.844 31.3987 234.359 31.0972C234.873 30.7957 235.478 30.6348 236.096 30.6348C236.926 30.6348 237.721 30.9239 238.308 31.4385C238.894 31.953 239.224 32.651 239.224 33.3787Z" fill="#DDDDDD"/>
<path d="M249.398 33.3787C249.398 33.9214 249.215 34.4519 248.871 34.9032C248.527 35.3544 248.039 35.7061 247.467 35.9138C246.896 36.1215 246.267 36.1758 245.66 36.0699C245.054 35.9641 244.496 35.7027 244.059 35.319C243.622 34.9352 243.324 34.4463 243.203 33.914C243.082 33.3818 243.144 32.83 243.381 32.3286C243.618 31.8273 244.019 31.3987 244.533 31.0972C245.047 30.7957 245.652 30.6348 246.271 30.6348C247.1 30.6348 247.896 30.9239 248.482 31.4385C249.069 31.953 249.398 32.651 249.398 33.3787Z" fill="#EDEDED"/>
<path d="M24.5507 105.43C23.9252 99.1862 55.3255 87.3689 60.4824 96.491L50.2798 105.43C50.2798 105.43 29.0543 112.784 24.5507 105.43Z" fill="#2F7DA9"/>
<path d="M39.9381 60.8177C35.351 48.3785 35.0313 46.8541 38.0755 45.8907C41.1196 44.9272 48.8758 59.0982 49.7515 60.8177C52.8183 66.2608 55.182 71.9875 56.7988 77.8912C58.1888 83.4035 59.9264 96.111 60.2183 99.172C61.4137 112.087 37.1441 116.002 36.0877 105.965C35.0313 95.928 34.9201 92.6719 34.9201 92.6719C34.9201 92.6719 22.4101 93.7207 20.6448 85.5011C19.5426 79.0733 19.1192 72.57 19.3798 66.0739C19.3798 66.0739 0.336741 63.3056 1.01784 58.9031C1.69895 54.5006 38.9512 63.4031 38.9512 63.4031L39.9381 60.8177Z" fill="#B25E47"/>
<path d="M19.3798 66.0739C19.3798 66.0739 0.336741 63.3056 1.01784 58.9031C1.69895 54.5006 38.9512 63.4031 38.9512 63.4031L39.9381 60.8177C35.351 48.3785 35.0313 46.8541 38.0755 45.8907C41.1196 44.9272 48.8758 59.0982 49.7515 60.8177" stroke="#934735" stroke-width="0.61" stroke-linecap="round" stroke-linejoin="round"/>
<path d="M38.9231 63.4023C37.3108 68.8984 37.5864 74.69 39.7154 80.0489" stroke="#934735" stroke-width="0.61" stroke-linecap="round" stroke-linejoin="round"/>
<path d="M29.9996 53.8795C32.9881 55.2454 35.3372 55.5381 36.2268 51.8063C37.1164 48.0745 32.9881 47.9526 31.5981 48.1477C29.4714 48.4526 28.7208 53.2819 29.9996 53.8795Z" fill="#683F1D"/>
<path d="M30.5971 52.9023C29.9299 54.9024 29.4434 57.4024 29.4573 57.3292C29.9577 57.5488 32.8211 58.4146 33.2659 57.5488C33.7136 56.023 34.0295 54.4698 34.2111 52.9023H30.5971Z" fill="#683F1D"/>
<path d="M27.9008 58.5747C26.33 64.6724 18.268 98.2827 18.0039 99.3803C17.7398 100.478 18.0873 105.551 18.5877 105.746C19.0881 105.941 21.8681 102.307 22.9106 100.466C23.9531 98.6241 32.9882 61.7821 33.5581 60.0626C34.9481 55.8796 28.9294 54.5747 27.9008 58.5747Z" fill="#683F1D"/>
<path d="M20.7979 77.6356C16.892 78.4283 15.78 81.6967 18.6712 83.8674C21.7709 86.1967 29.4021 85.087 29.7913 82.1723C30.1805 79.2576 24.0506 76.9771 20.7979 77.6356Z" fill="#B25E47" stroke="#934735" stroke-width="0.61" stroke-linecap="round" stroke-linejoin="round"/>
<path d="M20.478 72.2694C16.4748 71.7572 15.4879 75.2329 18.3513 77.9768C21.2147 80.7208 30.6529 81.2817 31.1811 78.0744C31.7093 74.867 22.9105 72.5865 20.478 72.2694Z" fill="#B25E47" stroke="#934735" stroke-width="0.61" stroke-linecap="round" stroke-linejoin="round"/>
<path d="M16.9055 66.2701C21.9374 65.2213 32.835 71.7092 32.4041 73.7215C31.8759 76.2459 26.7468 76.6361 19.4493 73.9166C12.6104 71.38 14.4313 66.7823 16.9055 66.2701Z" fill="#B25E47" stroke="#934735" stroke-width="0.61" stroke-linecap="round" stroke-linejoin="round"/>
<path d="M259.268 114.965C243.644 114.294 230.703 126.672 226.7 140.88C226.575 141.27 226.477 141.709 226.38 142.173C225.95 144.36 225.653 146.567 225.49 148.782C223.822 167.539 225.393 204.881 225.49 205.71C225.56 206.015 214.37 205.71 199.011 205.076C193.339 204.844 187.071 204.588 180.565 204.295C147.428 202.869 108.076 200.942 108.076 200.942L105.699 177.637C105.699 177.637 100.737 184.954 83.793 199.356C66.8488 213.759 39.7297 205.71 42.6488 187.649C44.4697 176.307 52.1147 168.002 61.3583 154.124C64.1383 149.819 67.2241 144.99 70.2682 139.368C74.3131 131.892 78.2607 124.733 82.0277 118.306C83.6818 115.465 85.3081 112.77 86.8788 110.221C92.828 100.599 98.1656 93.3059 102.461 89.9035C115.374 79.6594 143.021 85.5619 150.388 87.6351C161.383 90.7705 172.791 92.6558 184.332 93.245C200.679 94.245 225.49 100.428 238.64 104.44C246.24 106.674 253.237 110.252 259.198 114.953L259.268 114.965Z" fill="#2E7DA9"/>
<path d="M270.262 136.258C255.959 123.66 234.233 118.16 212.438 135.209C187.084 155.026 167.624 158.466 139.101 129.526C118.473 108.599 111.301 103.257 86.9341 110.221C92.8833 100.599 98.221 93.3059 102.516 89.9035C115.429 79.6594 143.076 85.5619 150.444 87.6351C161.438 90.7705 172.846 92.6558 184.388 93.245C200.734 94.245 225.546 100.428 238.695 104.44C246.295 106.674 253.292 110.252 259.253 114.953V114.953C264.883 118.904 268.219 126.819 270.262 136.258Z" fill="#54C1E4"/>
<path d="M81.6386 172.271C72.5619 180.942 64.333 162.124 61.3862 154.124C64.1662 149.819 67.2521 144.99 70.2962 139.368C74.3411 131.892 78.2887 124.734 82.0556 118.307C88.7694 127.319 79.6926 135.575 79.0532 139.661C77.4686 150.563 94.7325 159.819 81.6386 172.271Z" fill="#2F7DA9"/>
<path d="M24.5508 105.427C38.6177 108.025 60.4825 96.4883 60.4825 96.4883C60.4825 96.4883 72.5338 143.672 75.6753 154.136C78.8167 164.599 98.944 205.588 59.7319 207.27C34.5727 208.344 32.8769 166.38 31.4035 152.562C29.9301 138.745 24.5508 105.427 24.5508 105.427Z" fill="#2E7DA9"/>
<path d="M33.8779 110.819C44.7061 111.49 56.7714 105.1 56.7714 105.1" stroke="#83ADDF" stroke-width="0.61" stroke-linecap="round" stroke-linejoin="round"/>
<path d="M60.4829 96.4883C60.4829 96.4883 72.5343 143.672 75.6757 154.136C77.3993 159.843 84.1686 174.636 83.5987 187.173" stroke="#83ADDF" stroke-width="0.61" stroke-linecap="round" stroke-linejoin="round"/>
<path d="M139.101 95.3428C146.051 106.77 164.733 117.746 187.195 102.587C187.195 102.587 189.614 96.294 189.364 96.294C189.114 96.294 142.284 91.3184 142.284 91.3184L139.101 95.3428Z" fill="white"/>
<path d="M157.588 81.1725C151.806 80.0262 143.41 81.3067 137.628 89.0995C131.845 96.8923 131.109 103.331 131.442 103.258C131.776 103.185 140.491 98.3801 144.48 98.685C148.784 99.3265 153.036 100.206 157.213 101.319L157.588 81.1725Z" fill="#F5AD5C"/>
<path d="M183.665 83.4531C183.665 83.4531 196.453 83.5263 198.176 91.3923C199.9 99.2583 195.16 108.685 189.364 113.051C183.567 117.417 186.764 106.758 165.984 101.758L183.665 83.4531Z" fill="#F5AD5C"/>
<path d="M189.906 92.6476C189.906 92.6476 182.803 102.123 166.971 102.343C151.139 102.562 148.095 94.2696 148.095 94.2696C149.804 90.5134 151.876 82.5011 153.196 76.8791C154.03 73.3302 154.586 70.7814 154.586 70.7814C154.586 70.7814 157.199 48.5372 184.388 49.8786L184.847 53.5372L189.906 92.6476Z" fill="#B25E47"/>
<path d="M153.196 77.0495C154.03 73.5007 154.586 70.9519 154.586 70.9519L170.057 64.5859C170.057 64.5859 172.503 80.0862 153.196 77.0495Z" fill="#914839"/>
<path d="M105.741 177.636C103.559 155.684 103.559 137.977 103.559 137.977" stroke="#83ADDF" stroke-width="0.61" stroke-linecap="round" stroke-linejoin="round"/>
<path d="M209.032 230.919C207.706 230.493 206.442 229.933 205.265 229.249C197.342 224.663 196.661 215.724 199.066 205.077C200.928 196.919 204.626 187.76 208.198 178.784C212.285 168.552 216.288 158.565 217.414 150.577C217.581 149.455 217.678 148.381 217.72 147.357C217.925 141.222 219.205 135.151 221.514 129.357C228.047 113.222 242.364 103.064 259.253 114.954C264.813 118.893 268.205 126.808 270.248 136.247C270.985 139.613 271.555 143.174 272.027 146.808C273.584 159.162 273.792 172.418 274.487 182.333C277.893 230.261 264.813 249.383 209.032 230.919Z" fill="#2E7DA9"/>
<path d="M270.262 136.259C257.961 125.418 240.127 119.832 221.515 129.357C228.048 113.222 242.365 103.064 259.253 114.954C264.883 118.905 268.219 126.82 270.262 136.259Z" fill="#53C1E4"/>
<path d="M225.546 205.711C225.615 206.016 214.425 205.711 199.066 205.077C193.395 204.845 187.126 204.589 180.621 204.296C169.5 199.894 162.55 193.528 168.486 184.406C184.638 159.613 214.356 193.967 215.857 169.381C216.9 152.539 221.556 148.893 225.49 148.783C223.822 167.54 225.393 204.857 225.546 205.711Z" fill="#2F7DA9"/>
<path d="M229.34 133.564C227.131 138.423 225.831 143.562 225.49 148.784C224.003 167.553 225.393 204.883 225.49 205.712" stroke="#83ADDF" stroke-width="0.61" stroke-linecap="round" stroke-linejoin="round"/>
<path d="M209.032 230.92C207.706 230.494 206.442 229.933 205.265 229.249C218.039 231.688 237.138 233.822 245.575 227.517C258.85 217.602 250.413 204.895 257.752 197.895C265.091 190.895 275.669 188.639 272.041 146.857C273.598 159.211 273.806 172.468 274.501 182.382C277.893 230.261 264.813 249.383 209.032 230.92Z" fill="#2F7DA9"/>
<path d="M177.062 146.832C179.092 138.82 167.638 139.185 167.638 139.185C168.653 131.795 157.505 129.758 154.934 136.954C145.885 134.515 143.021 136.954 141.701 141.137L177.062 146.832Z" fill="#DDDDDD"/>
<path d="M161.619 139.953C163.116 139.953 164.33 138.889 164.33 137.575C164.33 136.262 163.116 135.197 161.619 135.197C160.122 135.197 158.909 136.262 158.909 137.575C158.909 138.889 160.122 139.953 161.619 139.953Z" fill="#F9F9F9" stroke="#DDDDDD" stroke-width="0.82" stroke-linecap="round" stroke-linejoin="round"/>
<path d="M124.492 135.209L107.59 215.625L174.713 227.515L192.742 146.99L124.492 135.209Z" fill="#F9F9F9" stroke="#DDDDDD" stroke-width="0.82" stroke-linecap="round" stroke-linejoin="round"/>
<path d="M145.176 188.49C141.742 196.32 141.548 204.539 143.118 207.295C143.118 207.295 149.526 208.332 155.92 193.1L145.176 188.49Z" fill="#2F7DA9"/>
<path d="M153.919 173.393C138.559 168.771 131.22 165.966 128.454 165.307C125.688 164.649 115.694 163.917 114.095 165.307C113.39 165.973 112.908 166.797 112.702 167.687C112.496 168.578 112.574 169.502 112.928 170.356C113.456 172.222 111.76 173.575 111.538 175.466C111.315 177.356 113.887 177.905 113.345 179.783C112.803 181.661 111.121 183.698 112.288 185.759C113.456 187.82 111.121 189.954 113.345 192.478C115.569 195.003 138.212 196.21 143.174 195.283L152.904 199.1C152.904 199.1 170.071 183.576 153.919 173.393Z" fill="#B25E47"/>
<path d="M128.398 165.27C125.618 164.624 115.638 163.88 114.04 165.27C113.334 165.936 112.852 166.76 112.646 167.65C112.44 168.541 112.518 169.465 112.872 170.319C113.4 172.185 111.704 173.539 111.482 175.429C111.26 177.319 113.831 177.868 113.289 179.746C112.747 181.624 111.065 183.661 112.233 185.722C113.4 187.783 111.065 189.917 113.289 192.441" stroke="#934735" stroke-width="0.61" stroke-linecap="round" stroke-linejoin="round"/>
<path d="M245.659 227.515C241.67 233.844 231.662 236.905 212.688 231.869C207.559 230.515 202.611 229.1 197.885 227.673C190.045 225.32 182.817 222.905 176.339 220.6C165.043 216.658 153.982 212.213 143.202 207.283C146.044 204.511 148.337 201.341 149.985 197.905C151.021 195.865 151.871 193.757 152.529 191.6C154.301 185.633 154.772 179.427 153.919 173.307C156.504 173.99 159.284 174.681 162.259 175.38C169.334 177.075 177.257 178.843 185.291 180.697C209.366 186.258 234.4 192.636 240.502 200.563C241.058 201.283 241.586 202.027 242.087 202.783C242.281 203.075 242.49 203.38 242.671 203.685C242.727 203.764 242.778 203.845 242.824 203.929C243.046 204.283 243.268 204.661 243.477 205.027C243.857 205.669 244.204 206.315 244.519 206.966C248.008 214.222 249.023 222.076 245.659 227.515Z" fill="#2E7DA9"/>
<path d="M153.919 173.393C181.483 180.71 231.467 188.99 240.447 200.649C241.999 202.675 243.343 204.818 244.464 207.052" stroke="#83ADDF" stroke-width="0.61" stroke-linecap="round" stroke-linejoin="round"/>
<path d="M162.148 175.43C163.857 190.588 154.934 205.137 154.934 205.137" stroke="#83ADDF" stroke-width="0.61" stroke-linecap="round" stroke-linejoin="round"/>
<path d="M245.576 227.516C241.586 233.845 231.578 236.906 212.605 231.869C207.476 230.516 202.527 229.101 197.801 227.674C208.907 230.247 235.234 235.247 245.576 227.516Z" fill="#2F7DA9"/>
<path d="M184.388 50.0143L184.86 53.6729C175.227 66.8317 162.078 70.9537 154.586 70.9537C142.215 68.2463 137.989 58.4779 137.266 48.0021C137.08 45.4928 137.071 42.9758 137.239 40.4654C137.821 33.3561 139.218 26.3164 141.409 19.4529C141.409 19.4529 178.563 4.28192 181.135 34.7336C181.135 34.7336 189.1 33.5141 190.587 41.2337C191.741 47.6485 184.388 50.0143 184.388 50.0143Z" fill="#B25E47"/>
<path d="M143.202 40.5004C144.023 40.5004 144.689 39.9162 144.689 39.1955C144.689 38.4748 144.023 37.8906 143.202 37.8906C142.38 37.8906 141.714 38.4748 141.714 39.1955C141.714 39.9162 142.38 40.5004 143.202 40.5004Z" fill="#683F1D"/>
<path d="M153.543 38.8422C154.364 38.8422 155.03 38.258 155.03 37.5373C155.03 36.8166 154.364 36.2324 153.543 36.2324C152.722 36.2324 152.056 36.8166 152.056 37.5373C152.056 38.258 152.722 38.8422 153.543 38.8422Z" fill="#683F1D"/>
<path d="M151.277 30.5379C151.444 32.3063 158.366 32.977 158.756 31.9892C159.353 30.4648 150.916 26.3671 151.277 30.5379Z" fill="#604730"/>
<path d="M138.086 33.1475C138.086 34.1109 145.62 34.5621 145.342 31.1474C145.162 28.7206 138.253 30.5133 138.086 33.1475Z" fill="#604730"/>
<path d="M179.12 44.3553C182.219 40.3308 187.126 40.7699 187.64 41.5382" stroke="#934735" stroke-width="0.61" stroke-linecap="round" stroke-linejoin="round"/>
<path d="M180.44 42.9774C185.013 40.6237 187.501 45.9043 181.719 45.9043" stroke="#934735" stroke-width="0.61" stroke-linecap="round" stroke-linejoin="round"/>
<path d="M147.205 35.416C148.456 37.5502 148.359 38.8307 147.525 40.2088C146.691 41.5868 144.175 44.6966 145.495 47.4528" stroke="#934735" stroke-width="0.61" stroke-linecap="round" stroke-linejoin="round"/>
<path d="M155.309 47.9277C154.211 51.2327 149.749 53.3059 147.594 52.879C147.594 52.879 149.749 58.0133 153.543 56.6962C157.908 55.1961 155.309 47.9277 155.309 47.9277Z" fill="white" stroke="#934735" stroke-width="0.61" stroke-linecap="round" stroke-linejoin="round"/>
<path d="M178.438 49.0625C179.297 49.5806 180.272 49.9332 181.297 50.0972C182.322 50.2612 183.376 50.2327 184.388 50.0137" stroke="#934735" stroke-width="0.61" stroke-linecap="round" stroke-linejoin="round"/>
<path d="M191.935 31.5862C196.217 36.7327 189.795 38.9034 189.795 38.9034C189.139 38.0789 188.279 37.3952 187.279 36.9034C186.647 36.5777 185.94 36.3796 185.21 36.3234C184.48 36.2672 183.745 36.3544 183.058 36.5786C182.371 36.8028 181.75 37.1585 181.24 37.6197C180.729 38.0808 180.342 38.636 180.106 39.2449C171.363 39.4034 175.13 33.4155 175.13 33.4155C167.29 36.1595 167.04 29.1228 170.418 25.9398C164.302 31.9643 156.518 25.9398 157.797 20.5129C155.628 26.4398 147.914 26.6105 148.942 21.7324C148.28 22.7461 147.477 23.6841 146.552 24.5251C141.242 29.196 136.502 24.1959 138.49 20.5007C130.539 27.1471 127.091 19.708 134.681 15.7079C128.676 11.3908 135.765 5.24436 140.616 8.39075C139.518 0.74429 148.498 0.40282 152.445 4.8663C154.002 -3.53627 165.984 1.04917 166.47 5.03704C175.297 -0.37768 182.136 3.62238 181.246 12.4152C184.818 8.23221 192.464 10.6835 189.586 21.4153C196.856 20.9519 198.121 28.9642 191.935 31.5862Z" fill="#604730"/>
<path d="M187.279 36.9031C186.647 36.5774 185.94 36.3792 185.21 36.3231C184.48 36.2669 183.745 36.3541 183.058 36.5783C182.371 36.8025 181.75 37.1581 181.24 37.6193C180.729 38.0805 180.342 38.6357 180.106 39.2446C171.363 39.4031 175.13 33.4152 175.13 33.4152C167.29 36.1592 167.04 29.1225 170.418 25.9395C164.302 31.964 156.518 25.9395 157.797 20.5126C155.628 26.4395 147.914 26.6102 148.942 21.7321C148.28 22.7458 147.476 23.6838 146.552 24.5248C144.411 18.8296 149.206 11.3173 156.532 14.7686C157.491 10.1953 169.473 7.23188 169.403 18.8174C173.837 13.3783 183.873 15.2442 179.133 25.598C182.859 23.0126 191.449 27.2566 187.279 36.9031Z" fill="#473526"/>
<path d="M171.196 38.916C172.253 40.7697 170.265 43.5258 166.748 45.0746C163.232 46.6234 159.52 46.2941 158.408 44.5014C157.296 42.7087 159.34 39.8916 162.856 38.3428C166.373 36.794 170.126 37.0623 171.196 38.916Z" fill="#A0503D"/>
<path d="M141.881 45.9771C141.339 47.2942 139.504 48.0015 137.239 47.965C137.064 45.4673 137.064 42.9625 137.239 40.4648C140.602 41.7575 142.66 44.1234 141.881 45.9771Z" fill="#A0503D"/>
</svg>
