<svg width="217" height="242" viewBox="0 0 217 242" fill="none" xmlns="http://www.w3.org/2000/svg">
<path d="M118.159 77.218C116.551 79.9151 114.812 82.6195 112.97 85.2581C108.241 92.0557 102.898 98.4147 97.9128 102.961C80.9993 118.376 75.3639 102.427 76.95 95.915C78.2145 90.6962 92.007 71.3852 99.9448 60.6699C101.933 57.9874 103.548 55.8531 104.513 54.6033C109.352 48.3612 115.353 45.1013 123.415 47.5572C130.724 49.7719 126.404 63.3159 118.159 77.218Z" fill="#54C1E4"/>
<path d="M118.159 77.218C116.828 76.0571 115.604 74.7776 114.505 73.3953C110.258 68.1034 107.576 62.2706 99.8862 60.6699C101.874 57.9874 103.49 55.8531 104.454 54.6033C109.293 48.3612 115.294 45.1013 123.356 47.5572C130.724 49.7719 126.404 63.3159 118.159 77.218Z" fill="#2E7DA9"/>
<path d="M86.5544 161.471C81.6353 178.465 69.6044 212.124 69.7432 212.782C69.7944 213.074 70.0429 216.714 70.3134 220.756C70.6715 226.034 71.0443 231.991 71.0443 231.991C71.0443 231.991 37.6046 242.582 34.7394 241.807C31.8742 241.032 32.4224 236.954 36.8371 233.643C37.7654 232.912 39.1176 231.801 40.6745 230.441C46.4561 225.368 55.0079 217.197 55.0079 217.197C55.0079 217.197 62.6752 152.24 63.947 146.239C65.2188 140.238 70.4595 133.879 78.295 134.544C86.4375 135.231 91.4735 144.477 86.5544 161.471Z" fill="#FEBD9D"/>
<path d="M71.0369 231.99C71.0369 231.99 37.5973 242.581 34.7321 241.806C31.8669 241.032 32.415 236.953 36.8298 233.642C37.7581 232.911 39.1103 231.8 40.6671 230.441C46.785 231.698 53.334 229.651 56.7474 227.093C60.734 224.003 65.3579 221.839 70.2841 220.756C70.6422 226.033 71.0369 231.99 71.0369 231.99Z" fill="#C0D6D0"/>
<path d="M199.496 74.4114C199.657 73.1762 199.584 71.4292 196.039 69.5508L194.862 74.8719C194.862 74.8719 199.219 76.5749 199.496 74.4114Z" fill="#A7CAF0"/>
<path d="M182.919 68.9291C184.059 63.5276 184.556 63.0305 184.381 60.3992C184.205 57.7679 183.884 54.6469 188.218 49.3842C192.552 44.1216 195.111 40.0065 195.966 40.4304C196.821 40.8544 196.251 44.6552 194.614 48.3098C194.614 48.3098 206.126 41.7315 208.545 40.8105C210.964 39.8896 209.4 44.2897 204.569 46.6579C204.569 46.6579 212.17 42.0677 214.02 42.4405C215.869 42.8132 212.455 45.4957 209.824 47.2134C209.824 47.2134 214.816 44.085 215.796 45.1156C216.775 46.1462 214.034 48.3317 211.746 49.7131C211.746 49.7131 214.729 48.149 215.226 48.9311C215.723 49.7131 215.226 50.5683 212.302 52.4102C209.378 54.2522 202.997 57.3878 198.093 63.0013L196.806 76.8157C196.806 76.8157 185.309 78.738 182.919 68.9291Z" fill="#FEBD9D"/>
<path d="M190.001 47.1773C193.261 43.0256 195.235 40.0654 195.966 40.4309C196.821 40.8548 196.251 44.6337 194.614 48.2883C194.614 48.2883 206.126 41.71 208.545 40.789C210.964 39.8681 209.4 44.2682 204.569 46.6364C204.569 46.6364 212.17 42.0462 214.02 42.419C215.869 42.7918 212.455 45.4742 209.824 47.1919C209.824 47.1919 214.816 44.0636 215.796 45.0942C216.775 46.1248 214.034 48.3102 211.746 49.6917C211.746 49.6917 214.729 48.1275 215.226 48.9096C215.723 49.6917 215.226 50.5468 212.302 52.3888" stroke="#EF8A66" stroke-width="0.75" stroke-linecap="round" stroke-linejoin="round"/>
<path d="M195.469 57.4838C195.966 53.5806 198.575 52.2796 200.775 51.7168" stroke="#EF8A66" stroke-width="0.75" stroke-linecap="round" stroke-linejoin="round"/>
<path d="M200.563 47.8574C203.706 48.0036 206.996 50.8981 207.215 51.9652" stroke="#EF8A66" stroke-width="0.75" stroke-linecap="round" stroke-linejoin="round"/>
<path d="M202.12 48.1352C202.164 48.1352 206.433 45.5039 206.433 45.5039" stroke="#EF8A66" stroke-width="0.75" stroke-linecap="round" stroke-linejoin="round"/>
<path d="M210.614 46.6445L205.249 49.7583" stroke="#EF8A66" stroke-width="0.75" stroke-linecap="round" stroke-linejoin="round"/>
<path d="M212.368 49.2832L208.304 51.5564" stroke="#EF8A66" stroke-width="0.75" stroke-linecap="round" stroke-linejoin="round"/>
<path d="M173.417 121.169C178.862 126.665 189.263 123.325 192.955 108.743C196.646 94.1612 199.533 74.3897 199.533 74.3897C193.474 73.0563 187.819 70.3003 183.036 66.3496C177.708 80.7999 166.334 114.035 173.417 121.169Z" fill="#54C1E4"/>
<path d="M183 66.3633C179.484 75.953 173.278 93.8459 171.59 106.864" stroke="#83ADDF" stroke-width="0.75" stroke-linecap="round" stroke-linejoin="round"/>
<path d="M66.7024 139.118C63.6033 154.416 58.2091 166.659 52.5591 179.962C46.9091 193.265 41.1202 209.923 41.1202 212.525V224.293C41.1202 224.293 3.36078 230.71 1.65042 230.71C-0.0599373 230.71 -1.27327 227.055 2.38134 224.446C3.29499 223.803 5.15153 222.407 7.43932 220.66C14.3611 215.397 25.1569 207.021 25.1569 207.021C25.1569 207.021 38.1453 153.159 41.1202 135.822C45.915 107.842 70.9272 118.404 66.7024 139.118Z" fill="#FEBD9D"/>
<path d="M61.7178 157.217C63.0115 153.496 64.1956 149.673 65.2262 145.668C70.8689 146.83 77.6519 147.78 86.1233 149.286" stroke="#EF8A66" stroke-width="0.75" stroke-linecap="round" stroke-linejoin="round"/>
<path d="M41.1202 213.496V224.306C41.1202 224.306 3.36078 230.724 1.65042 230.724C-0.0599373 230.724 -1.27327 227.069 2.38134 224.46C3.29499 223.817 5.15153 222.421 7.43932 220.674C14.2881 222.253 22.3794 219.643 26.7576 217.67C31.3185 215.592 36.1562 214.186 41.1202 213.496V213.496Z" fill="#C0D6D0"/>
<path d="M83.9228 109.626C91.0235 109.626 96.7797 104.471 96.7797 98.1136C96.7797 91.7557 91.0235 86.6016 83.9228 86.6016C76.8222 86.6016 71.0659 91.7557 71.0659 98.1136C71.0659 104.471 76.8222 109.626 83.9228 109.626Z" fill="#54C1E4"/>
<path d="M165.633 53.4619C165.159 53.752 164.671 54.0179 164.171 54.2586C156.211 58.0814 151.957 56.9704 151.16 53.2061C150.364 49.4419 142.031 52.2852 141.541 45.6265C141.052 38.9678 144.005 36.8115 143.449 33.4128C143.449 33.4128 143.836 32.5357 144.436 31.5051C145.678 29.3123 147.857 26.4982 149.479 29.3708C151.884 33.6247 153.375 33.1716 157.812 33.6686C162.248 34.1656 164.288 37.2428 162.928 39.4648C161.276 42.1619 162.153 43.3314 166.999 43.7772C171.356 44.1865 172.021 49.6319 165.633 53.4619Z" fill="#DD6819"/>
<path d="M165.633 53.4608C165.159 53.7508 164.671 54.0167 164.171 54.2575C156.211 58.0802 151.957 56.9692 151.16 53.205C150.364 49.4407 142.031 52.284 141.541 45.6253C141.052 38.9666 144.005 36.8104 143.449 33.4116C143.449 33.4116 143.836 32.5345 144.436 31.5039C150.283 33.302 151.942 36.3645 151.372 39.0178C150.641 42.4019 153.616 46.8386 161.006 46.232C164.719 45.9177 165.64 49.6746 165.633 53.4608Z" fill="#CC5E0D"/>
<path d="M161.496 148.035C158.636 152.022 154.78 155.188 150.313 157.216C150.313 157.216 150.313 156.112 150.057 154.292C149.202 147.268 145.569 129.44 130.22 120.487L129.145 120.289H129.058L121.456 118.915C121.456 118.915 119.468 110.977 118.028 104.757C116.588 98.5371 113.102 92.9821 112.97 86.4184C112.97 86.053 112.97 85.6875 112.97 85.322C113.028 81.0608 113.92 76.9822 114.534 73.4592C114.809 72.0101 114.994 70.5455 115.09 69.0737C115.294 64.5639 111.735 59.4986 111.391 56.3556C111.048 53.2127 111.391 46.5686 119.672 47.2703C121.025 47.3799 122.267 47.4822 123.415 47.5992C124.562 47.7161 125.798 47.8404 126.843 47.972L127.939 48.1328C129.404 48.3314 130.853 48.6368 132.274 49.0464C133.413 49.3732 134.512 49.8294 135.548 50.4059C138.757 52.1967 146.103 49.9089 147.002 49.6165H147.089C148.683 49.5142 150.093 49.4046 151.351 49.2876C152.608 49.1707 153.66 49.0976 154.603 48.9952C157.395 48.7102 159.04 48.4617 159.895 48.3593C160.399 48.3593 161.123 55.2227 161.905 64.4396C162.322 69.4464 162.753 75.1622 163.177 80.8342C164.047 92.6459 164.851 104.333 165.326 109.34C165.399 110.151 165.472 110.802 165.531 111.226C166.254 116.525 170.72 135.032 161.496 148.035Z" fill="#54C1E4"/>
<path d="M161.912 64.3893C159.598 65.8087 157.416 67.433 155.393 69.2426C147.236 76.3983 141.381 84.7016 129.079 82.3261C125.049 81.6452 121.28 79.876 118.181 77.2096C116.85 76.0488 115.627 74.7693 114.527 73.3869C114.802 71.9378 114.987 70.4732 115.082 69.0014C115.287 64.4916 111.727 59.4263 111.384 56.2834C111.04 53.1404 111.384 46.4963 119.665 47.198C121.017 47.3076 122.26 47.41 123.407 47.5269C124.555 47.6439 125.79 47.7681 126.836 47.8997C128.671 48.115 130.487 48.4742 132.266 48.9741C133.406 49.301 134.505 49.7571 135.541 50.3337C138.75 52.1244 146.095 49.8366 146.994 49.5443H147.082C150.21 49.3396 152.674 49.113 154.596 48.923C157.388 48.6379 159.033 48.3894 159.888 48.2871C160.407 48.309 161.13 55.1504 161.912 64.3893Z" fill="#2E7DA9"/>
<path d="M142.989 101.666C143.976 108.916 145.414 116.098 147.294 123.17L129.145 120.246H129.058C129.058 120.246 128.546 108.551 125.096 97.8579C123.302 92.2081 122.559 86.2774 122.903 80.3597C123.231 75.4186 124.047 70.522 125.337 65.7412C126.707 59.9602 127.572 54.0712 127.925 48.1406C128.758 48.2649 129.533 48.3965 130.249 48.5499L130.746 48.6523C131.28 48.7692 131.784 48.9081 132.259 49.0543C133.399 49.3811 134.497 49.8372 135.534 50.4138C138.742 52.2046 146.088 49.9168 146.987 49.6244H147.075L149.852 49.427L150.364 49.3832L151.336 49.2955C149.962 53.5202 144.275 71.0258 142.419 80.2573C142.221 81.2806 142.061 82.1943 141.958 82.9763C141.432 87.1865 141.988 94.3568 142.989 101.666Z" fill="white"/>
<path d="M151.35 49.2155C149.976 53.4403 144.29 70.9458 142.433 80.1774C138.409 82.5675 133.625 83.3309 129.057 82.3117C126.934 81.9233 124.87 81.2599 122.917 80.3382C123.246 75.3971 124.061 70.5005 125.351 65.7197C126.721 59.9387 127.587 54.0498 127.939 48.1191C128.772 48.2434 129.547 48.375 130.263 48.5285L130.76 48.6308C131.294 48.7477 131.798 48.8866 132.273 49.0328C133.413 49.3596 134.512 49.8158 135.548 50.3923C138.757 52.1831 146.102 49.8953 147.001 49.6029H147.089L149.867 49.4056L150.378 49.3617L151.35 49.2155Z" fill="#F9F9F9"/>
<path d="M150.714 70.411L154.954 80.0884C153.74 82.1569 146.256 95.7301 142.989 101.665C141.98 94.356 141.432 87.1856 141.973 82.8951C142.989 74.9646 149.823 53.8995 151.35 49.2143C152.578 49.1192 153.66 49.0242 154.603 48.9219L155.875 67.3119C154.961 67.9112 150.714 70.411 150.714 70.411Z" fill="#2E7DA9"/>
<path d="M125.352 65.6901C123.795 71.9834 120.71 84.1825 125.096 97.8507C121.427 92.5016 118.814 86.5001 117.399 80.1697L122.18 69.5567L119.753 66.3772C119.753 66.3772 122.392 59.068 126.843 47.9434L127.939 48.1042C127.586 54.0299 126.72 59.9138 125.352 65.6901V65.6901Z" fill="#2E7DA9"/>
<path d="M149.297 48.3882C151.065 47.8546 152.542 48.3882 152.505 49.1191C152.418 51.078 149.012 62.8604 147.542 63.4598C147.272 63.5694 145.584 58.1387 143.676 57.4809C141.768 56.823 138.216 57.7294 138.296 57.6855C138.377 57.6417 145.489 47.1749 149.297 48.3882Z" fill="#C0D6D0"/>
<path d="M132.383 47.9793C135.387 52.0359 134.985 55.0692 133.845 55.2081C132.705 55.3469 131.411 55.2519 130.088 56.6334C128.765 58.0148 126.667 60.288 126.514 60.0029C125.724 58.5411 127.055 49.0391 127.639 48.0523C128.4 46.8463 131.572 46.8829 132.383 47.9793Z" fill="#C0D6D0"/>
<path d="M134.678 62.1953C134.313 69.9138 132.522 72.8741 131.448 77.6397C130.373 82.4053 131.316 88.8959 133.063 96.3805C134.81 103.865 134.715 107.885 134.678 108.704C134.642 109.522 132.917 114.208 136.696 116.013" stroke="#DDDDDD" stroke-linecap="round" stroke-linejoin="round"/>
<path d="M149.297 48.3815C149.297 48.3815 137.682 60.2516 134.97 58.4828C132.259 56.714 131.199 49.9968 131.506 47.7309C131.608 47 131.813 45.6113 132.039 44.0763C132.515 40.9845 133.107 37.2276 133.209 36.4236C133.531 29.8453 144.312 24.1733 147.396 31.4679C146.949 37.1753 147.594 42.9156 149.297 48.3815V48.3815Z" fill="#FEBD9D"/>
<path d="M132.054 44.0759C132.529 40.9841 133.121 37.2272 133.224 36.4232L140.248 33.9746C140.986 39.9682 137.938 43.3816 132.054 44.0759Z" fill="#F4A789"/>
<path d="M112.97 85.2564C113.028 80.9951 113.92 76.9166 114.534 73.3935C114.809 71.9444 114.994 70.4798 115.089 69.008C115.184 66.8152 114.417 64.5421 113.554 62.4297" stroke="#83ADDF" stroke-width="0.75" stroke-linecap="round" stroke-linejoin="round"/>
<path d="M149.67 123.666C145.196 122.592 130.22 120.436 130.22 120.436" stroke="#83ADDF" stroke-width="0.75" stroke-linecap="round" stroke-linejoin="round"/>
<path d="M57.2005 117.016C49.3723 117.016 37.6776 129.631 45.7469 136.941C54.8981 145.222 65.2699 145.58 86.1304 149.279C86.1231 149.264 96.7726 117.016 57.2005 117.016Z" fill="#FEBD9D"/>
<path d="M150.027 154.241C140.767 156.434 121.032 154.658 109.213 153.342C106.121 152.991 103.577 152.684 101.903 152.48C100.602 152.326 99.813 152.246 99.7107 152.253C76.7451 154.395 73.8653 149.373 64.2025 136.955C54.5397 124.536 57.0614 117.746 57.2003 117.015C75.1371 115.51 105.88 116.898 121.463 118.864L130.234 120.451C134.048 122.683 137.41 125.611 140.145 129.083C147.301 138.088 149.428 149.081 150.027 154.241Z" fill="#F5AD5C"/>
<path d="M86.5542 148.766C93.995 150.958 101.904 152.479 101.904 152.479" stroke="#F7AD2B" stroke-width="0.75" stroke-linecap="round" stroke-linejoin="round"/>
<path d="M150.028 154.241C140.767 156.434 121.032 154.658 109.213 153.342C114.731 149.249 120.608 149.41 127.128 150.623C140.584 153.13 143.142 148.314 139.919 143.19C137.076 138.68 135.862 132.284 140.102 129.068C147.301 138.088 149.428 149.081 150.028 154.241Z" fill="#F5AD5C"/>
<path d="M182.787 122.667C174.637 126.848 169.031 117.814 165.333 109.298C164.602 107.581 163.915 105.892 163.323 104.335C160.794 97.7572 156.745 82.2763 155.392 69.2512C154.311 58.6456 155.034 49.6479 159.895 48.3103C165.676 46.7315 172.094 49.2825 175.865 60.0562C176.613 62.2482 177.204 64.4905 177.634 66.7661C181.106 84.5714 191.302 118.296 182.787 122.667Z" fill="#54C1E4"/>
<path d="M165.333 109.297C164.602 107.58 163.915 105.891 163.323 104.334C161.357 99.2179 158.447 88.6854 156.635 78.1309" stroke="#83ADDF" stroke-width="0.75" stroke-linecap="round" stroke-linejoin="round"/>
<path d="M175.873 60.0045C170.935 60.2919 166.142 61.7824 161.912 64.3462C159.598 65.7657 157.416 67.3899 155.392 69.1995C154.311 58.5939 155.034 49.5962 159.895 48.2586C165.684 46.7091 172.101 49.26 175.873 60.0045Z" fill="#2E7DA9"/>
<path d="M150.488 25.1838C147.696 30.5488 126.214 24.4529 126.214 24.4529C122.728 23.4369 120.981 22.0555 121.098 19.9504C121.215 17.8453 124.497 17.7576 123.649 15.7403C123.216 14.7611 122.968 13.7104 122.918 12.6412C122.852 10.7189 123.583 8.49686 126.404 6.7061C131.375 3.54852 138.201 7.78786 138.201 7.78786C138.201 7.78786 141.322 5.17848 146.972 8.08754C149.838 9.54939 151.409 12.5462 151.899 15.8353C152.381 19.0224 151.89 22.281 150.488 25.1838V25.1838Z" fill="#DD6819"/>
<path d="M150.488 25.1839C147.696 30.5489 126.214 24.453 126.214 24.453C122.728 23.437 120.981 22.0556 121.098 19.9505C121.215 17.8455 124.497 17.7578 123.649 15.7404C123.216 14.7612 122.968 13.7106 122.918 12.6413C127.545 7.76607 138.121 7.15941 139.261 11.7204C140.555 16.8953 143.018 25.1328 151.906 15.8354C152.387 19.0233 151.892 22.2819 150.488 25.1839Z" fill="#CC5E0D"/>
<path d="M137.463 10.5581C141.505 7.81715 145.269 9.88566 146.322 12.9117C147.849 17.2972 142.667 21.8947 147.849 25.8124" stroke="#FF79A0" stroke-width="0.75" stroke-linecap="round" stroke-linejoin="round"/>
<path d="M125.651 13.4529C126.017 9.34514 132.361 5.41278 138.223 7.76635" stroke="#FF79A0" stroke-width="0.75" stroke-linecap="round" stroke-linejoin="round"/>
<path d="M147.411 31.4983C147.411 31.4983 141.563 37.2068 135.117 39.0487C128.816 40.8687 123.422 37.0679 123.941 27.9972C123.941 27.851 123.941 27.6975 123.941 27.5513C124.029 26.4476 124.16 25.3585 124.336 24.3279C125.688 16.5144 129.752 10.857 136.498 12.9694C138.567 13.6126 136.63 20.9218 138.018 24.2037C138.102 24.4081 138.204 24.6039 138.325 24.7884C138.801 25.4531 139.424 25.9985 140.145 26.3818C142.433 27.639 145.54 27.3613 146.548 25.4316C148.01 22.6322 151.979 21.2873 153.36 25.9798C154.362 29.3494 150.678 32.3973 147.411 31.4983Z" fill="#FEBD9D"/>
<path d="M140.146 26.3822C139.495 27.1571 138.642 27.7364 137.682 28.056C135.789 28.787 133.962 28.5457 133.604 27.5809C133.246 26.6161 134.503 25.2712 136.396 24.5768C136.925 24.378 137.478 24.2478 138.041 24.1895C138.124 24.3939 138.227 24.5897 138.348 24.7742C138.815 25.4417 139.43 25.992 140.146 26.3822V26.3822Z" fill="#F4AF90"/>
<path d="M125.907 27.5368C125.578 28.0192 124.847 28.1508 123.963 27.9681C123.963 27.8219 123.963 27.6684 123.963 27.5222C124.051 26.4185 124.182 25.3294 124.358 24.2988C125.724 25.3952 126.404 26.762 125.907 27.5368Z" fill="#F4AF90"/>
<path d="M127.077 22.4207C127.077 22.5812 127.124 22.738 127.213 22.8714C127.303 23.0049 127.429 23.1089 127.577 23.1703C127.726 23.2317 127.889 23.2477 128.046 23.2164C128.204 23.1851 128.348 23.1079 128.462 22.9944C128.575 22.8809 128.652 22.7364 128.684 22.579C128.715 22.4216 128.699 22.2585 128.638 22.1102C128.576 21.962 128.472 21.8353 128.339 21.7461C128.205 21.657 128.048 21.6094 127.888 21.6094C127.673 21.6094 127.466 21.6949 127.314 21.847C127.162 21.9992 127.077 22.2055 127.077 22.4207V22.4207Z" fill="#683F1D"/>
<path d="M131.572 23.6492C131.57 23.8118 131.617 23.971 131.707 24.1068C131.796 24.2425 131.924 24.3486 132.074 24.4114C132.224 24.4743 132.389 24.4911 132.548 24.4598C132.708 24.4284 132.854 24.3503 132.969 24.2354C133.084 24.1205 133.162 23.9739 133.194 23.8144C133.225 23.655 133.208 23.4898 133.145 23.3399C133.082 23.19 132.976 23.0622 132.841 22.9728C132.705 22.8834 132.546 22.8365 132.383 22.8379C132.168 22.8379 131.962 22.9234 131.809 23.0756C131.657 23.2277 131.572 23.4341 131.572 23.6492Z" fill="#683F1D"/>
<path d="M147.557 28.0852C148.427 25.8925 150.342 24.8473 151.782 25.8925" stroke="#EF8A66" stroke-width="0.75" stroke-linecap="round" stroke-linejoin="round"/>
<path d="M147.835 27.4496C150.159 25.6735 151.767 29.6424 148.04 29.6424" stroke="#EF8A66" stroke-width="0.75" stroke-linecap="round" stroke-linejoin="round"/>
<path d="M124.92 18.496C124.701 19.5485 129.24 21.003 129.671 18.876C129.978 17.3484 125.176 17.3484 124.92 18.496Z" fill="#DD6819"/>
<path d="M132.42 19.1747C131.923 21.0239 137.083 21.9887 137.639 20.7388C138.114 19.6863 132.983 17.0842 132.42 19.1747Z" fill="#DD6819"/>
<path d="M127.735 27.3836C126.726 25.8122 127.252 24.6354 128.575 24.6354C130.19 24.6354 130.717 23.1735 130.644 21.127" stroke="#EF8A66" stroke-width="0.75" stroke-linecap="round" stroke-linejoin="round"/>
<path d="M127.698 28.9994C129.781 29.2552 132.552 27.9688 132.552 27.9688C132.552 27.9688 132.427 31.6234 130.125 31.9377C127.823 32.252 127.698 28.9994 127.698 28.9994Z" fill="white" stroke="#EF8A66" stroke-width="0.75" stroke-linecap="round" stroke-linejoin="round"/>
<path d="M71.3656 7.49488C69.224 6.12805 66.7608 6.50813 66.0372 8.39391C64.992 11.1276 66.9581 12.9768 69.1655 13.6931L71.3656 7.49488Z" fill="#F9F9F9" stroke="#DDDDDD" stroke-linecap="round" stroke-linejoin="round"/>
<path d="M97.2329 25.8114C100.727 27.2733 102.612 28.0553 103.19 27.6022C103.767 27.149 106.435 21.0239 106.15 20.3734C105.865 19.7228 100.398 16.7188 100.398 16.7188L97.2329 25.8114Z" fill="#DDDDDD" stroke="#EDEDED" stroke-linecap="round" stroke-linejoin="round"/>
<path d="M77.834 51.8405C78.3822 49.5016 86.225 47.6158 88.8782 47.1699V55.042C88.8782 55.042 80.5896 56.7669 77.834 51.8405Z" fill="#A7CAF0"/>
<path d="M81.1528 55.3335C82.505 48.821 83.4187 47.2933 82.9947 46.4747C82.5708 45.6561 79.8298 42.9809 79.5009 40.24C79.172 37.499 82.0738 32.9307 83.0971 31.4689C84.1204 30.0071 85.5457 28.9618 90.0335 29.6708C94.5214 30.3798 96.261 30.9865 96.3121 33.2085C96.3633 35.4305 94.3313 50.3998 94.3313 50.3998C94.3313 50.3998 90.8229 61.5536 81.1528 55.3335Z" fill="#FEBD9D"/>
<path d="M86.7294 22.6621C85.8011 27.0476 83.3598 34.3569 82.4462 37.9164C81.5325 41.476 82.1246 43.3472 85.0409 43.9392C87.9573 44.5313 89.7335 39.4806 90.3255 36.1768C90.9175 32.8731 92.5183 24.6356 92.5183 24.6356L86.7294 22.6621Z" fill="#F9F9F9" stroke="#DDDDDD" stroke-linecap="round" stroke-linejoin="round"/>
<path d="M73.7264 104.73C83.6669 112.945 89.9382 95.8272 92.2406 80.8067C93.6744 70.7354 94.373 60.5731 94.331 50.4004C94.331 50.4004 86.0497 52.7028 77.8341 51.8622C75.3052 64.0321 65.6278 98.0126 73.7264 104.73Z" fill="#54C1E4"/>
<path d="M87.2852 98.7425C89.6168 93.7284 91.276 87.0478 92.2408 80.7911C93.6746 70.7198 94.3732 60.5575 94.3312 50.3848" stroke="#83ADDF" stroke-width="0.75" stroke-linecap="round" stroke-linejoin="round"/>
<path d="M98.5922 25.9805C97.452 26.4337 94.8645 26.5726 91.473 26.1706C85.7316 25.4456 80.1569 23.7423 74.9907 21.1345L82.0514 5.78516C87.3614 7.32168 92.3801 9.72731 96.9038 12.9043C99.462 14.6951 101.289 16.3908 101.925 17.5091C102.561 18.6275 101.282 24.9207 98.5922 25.9805Z" fill="#F9F9F9" stroke="#DDDDDD" stroke-linecap="round" stroke-linejoin="round"/>
<path d="M98.5923 25.9805C97.4521 26.4337 94.8646 26.5726 91.4731 26.1706C94.8719 22.3332 97.2767 18.1743 96.9039 12.9336C99.4621 14.7244 101.289 16.4201 101.925 17.5384C102.561 18.6567 101.282 24.9207 98.5923 25.9805Z" fill="#F9F9F9" stroke="#EDEDED" stroke-linecap="round" stroke-linejoin="round"/>
<path d="M76.4309 22.2447C78.3167 21.6819 84.1129 10.3891 83.2796 7.06343C82.4464 3.73774 75.3564 -3.90039 75.3564 -3.90039C75.3564 -3.90039 66.3076 11.7779 64.6411 23.3849C64.6411 23.4068 73.6899 23.0487 76.4309 22.2447Z" fill="#DDDDDD" stroke="#EDEDED" stroke-linecap="round" stroke-linejoin="round"/>
<path d="M65.3942 1.49304L62.6094 -3.08984" stroke="#DDDDDD" stroke-linecap="round" stroke-linejoin="round"/>
<path d="M54.5034 4.6875L59.4152 6.67561" stroke="#DDDDDD" stroke-linecap="round" stroke-linejoin="round"/>
<path d="M53.9258 14.607L59.0057 13.6934" stroke="#DDDDDD" stroke-linecap="round" stroke-linejoin="round"/>
<path d="M78.7111 36.8477C80.7431 35.8025 86.3419 41.9642 82.9358 42.3589C80.9185 42.6147 75.7216 38.3826 78.7111 36.8477Z" fill="#FEBD9D" stroke="#EF8A66" stroke-width="0.75" stroke-linecap="round" stroke-linejoin="round"/>
<path d="M79.128 33.4347C81.1673 32.3895 87.1682 38.6023 83.7986 39.019C81.7959 39.2748 76.2044 34.9623 79.128 33.4347Z" fill="#FEBD9D" stroke="#EF8A66" stroke-width="0.75" stroke-linecap="round" stroke-linejoin="round"/>
<path d="M79.9904 29.9635C82.1831 28.8379 88.6664 35.5185 85.0045 35.9717C82.8337 36.2421 76.7743 31.6081 79.9904 29.9635Z" fill="#FEBD9D" stroke="#EF8A66" stroke-width="0.75" stroke-linecap="round" stroke-linejoin="round"/>
<path d="M81.2332 26.8424C83.3529 25.6072 89.69 32.5144 86.4666 33.9616C84.9755 34.6414 78.1122 28.6624 81.2332 26.8424Z" fill="#FEBD9D" stroke="#EF8A66" stroke-width="0.75" stroke-linecap="round" stroke-linejoin="round"/>
<path d="M90.3186 33.8445C89.7996 33.1575 84.9828 30.877 85.5457 29.0424C86.1085 27.2078 91.8681 29.0935 94.5579 29.9633C97.2477 30.8331 96.5753 32.4996 95.9028 37.9158C95.9394 37.9158 93.5273 38.0766 90.3186 33.8445Z" fill="#FEBD9D"/>
<path d="M90.3186 33.8445C89.7996 33.1575 84.9828 30.877 85.5457 29.0424C86.1085 27.2078 91.8681 29.0935 94.5579 29.9633C97.2477 30.8331 96.5753 32.4996 95.9028 37.9158" stroke="#EF8A66" stroke-width="0.75" stroke-linecap="round" stroke-linejoin="round"/>
</svg>
