<svg width="26" height="18" viewBox="0 0 26 18" fill="none" xmlns="http://www.w3.org/2000/svg">
<path d="M8.31515 17.125C5.48452 17.125 2.8459 16.4487 0.625 15.2818C2.51062 15.3821 5.83831 15.1421 7.90813 13.5203C4.79444 13.403 3.39023 11.4413 3.20707 10.603C3.47163 10.6869 4.73339 10.7875 5.44567 10.5527C1.86391 9.81504 1.31444 7.23308 1.43654 6.44508C2.10812 6.83069 3.24777 6.96482 3.69549 6.93129C0.357944 4.96967 1.55865 2.01886 2.14882 1.38175C4.54397 4.10748 8.13355 5.63835 12.5743 5.7235C12.4906 5.42185 12.4464 5.1078 12.4464 4.78524C12.4464 2.47035 14.7242 0.59375 17.5341 0.59375C19.0022 0.59375 20.3251 1.10604 21.2537 1.92548C22.2348 1.73664 23.7113 1.29458 24.4331 0.912304C24.0692 1.98533 22.9366 2.88045 22.2514 3.21221C22.2458 3.20088 22.2571 3.2235 22.2514 3.21221C22.8533 3.13743 24.4817 2.88036 25.125 2.52184C24.8069 3.12465 23.606 4.12693 22.6205 4.68805C22.8039 11.3305 16.6169 17.125 8.31515 17.125Z" fill="#47ACDF"/>
</svg>
